<svg width="64" height="63" fill="none" xmlns="http://www.w3.org/2000/svg"><path d="M60.22 23.959v1.267a24.13 24.13 0 01-10.806 20.118l-10.85 7.186-3.938 2.607-2.953 1.957-.984-.645-2.954-1.935-1.415-.927-10.61-6.951-1.394-.913-.284-.187A24.13 24.13 0 013.126 25.353v-2.847c0-3.126.892-6.188 2.57-8.826a14.657 14.657 0 0112.368-6.79h.373a14.66 14.66 0 0111.727 5.865l1.509 2.01 1.508-2.01a14.66 14.66 0 0124.39 1.409 19.455 19.455 0 012.649 9.795z" fill="#5D62B5"/><path d="M34.626 46.758v8.379l3.938-2.607v-8.848l-3.938 3.076z" fill="#EA9D2D"/><path d="M44.47 20.672v2.46a2.46 2.46 0 01-2.461 2.462h-2.461V31.5l-.36.986.623.983.48 3.598c.118.88.155 1.77.11 2.657a7.547 7.547 0 01-1.838 4.573l-3.937 2.953v7.887l-2.953 1.957-.984-.645v-7.23l-4.369 4.368-10.61-6.951 8.088-11.199 1.969-2.953 2.577-2.578 1.304-.319.056-1.04v-2.742c0-2.657 1.056-5.205 2.935-7.083a3.427 3.427 0 012.421-1.003h2.131c.88 0 1.722.35 2.343.97l1.983 1.983h2.953z" fill="#FBB540"/><path d="M35.61 20.672h1.97v1.969h-1.97v-1.97z" fill="#985713"/><path d="M39.812 33.469h-1.42a12.836 12.836 0 01-5.709-1.348l-4.338-2.215 1.36-1.36v-.155l3.867 1.973a10.834 10.834 0 004.82 1.136h1.156l.264 1.969z" fill="#5D62B5"/><path d="M31.918 29.531h-2.214v-1.968h2.214a.74.74 0 00.74-.74v-3.198h1.968v3.198a2.711 2.711 0 01-2.708 2.708z" fill="#985713"/><path d="M31.673 35.438v1.968a2.954 2.954 0 01-2.953 2.953v3.581a4.42 4.42 0 01-.745 2.457l-1.224 1.837v2.953l.358.717.298.596.328.656v1.358l-1.415-.927-10.61-6.951-1.394-.913 5.544-8.317v-3.08a6.4 6.4 0 011.554-4.133l1.4-1.646.984 3.937h2.357a2.95 2.95 0 012.456 1.316 3.681 3.681 0 003.062 1.638z" fill="#E4E4E2"/><path d="M24.782 35.438h1.969v1.968h-1.969v-1.968z" fill="#29C3BE"/></svg>