<svg width="894" height="934" fill="none" xmlns="http://www.w3.org/2000/svg"><g clip-path="url(#clip0)" fill-rule="evenodd" clip-rule="evenodd" fill="#000"><path d="M148.697 764.997c-5.711 0-10.34-4.477-10.34-10s4.629-10 10.34-10c5.71 0 10.339 4.477 10.339 10 5.711 0 10.34 4.477 10.34 10s-4.629 10-10.34 10c-5.71 0-10.339-4.477-10.339-10zm-41.358 40c-5.711 0-10.34-4.477-10.34-10s4.629-10 10.34-10c5.71 0 10.339 4.477 10.339 10 5.711 0 10.34 4.477 10.34 10s-4.629 10-10.34 10c-5.71 0-10.339-4.477-10.339-10zm8.271-10c0-4.418-3.703-8-8.271-8-4.568 0-8.272 3.582-8.272 8s3.704 8 8.272 8 8.271-3.582 8.271-8zm41.358-40c0-4.418-3.703-8-8.271-8-4.568 0-8.272 3.582-8.272 8s3.704 8 8.272 8 8.271-3.582 8.271-8zm-8.271-72c-5.711 0-10.34-4.477-10.34-10s4.629-10 10.34-10c5.71 0 10.339 4.477 10.339 10 5.711 0 10.34 4.477 10.34 10s-4.629 10-10.34 10c-5.71 0-10.339-4.477-10.339-10zm-41.358 40c-5.711 0-10.34-4.477-10.34-10s4.629-10 10.34-10c5.71 0 10.339 4.477 10.339 10 5.711 0 10.34 4.477 10.34 10s-4.629 10-10.34 10c-5.71 0-10.339-4.477-10.339-10zm8.271-10c0-4.418-3.703-8-8.271-8-4.568 0-8.272 3.582-8.272 8s3.704 8 8.272 8 8.271-3.582 8.271-8zm41.358-40c0-4.418-3.703-8-8.271-8-4.568 0-8.272 3.582-8.272 8s3.704 8 8.272 8 8.271-3.582 8.271-8zm-8.271-72c-5.711 0-10.34-4.477-10.34-10s4.629-10 10.34-10c5.71 0 10.339 4.477 10.339 10 5.711 0 10.34 4.477 10.34 10s-4.629 10-10.34 10c-5.71 0-10.339-4.477-10.339-10zm-41.358 40c-5.711 0-10.34-4.477-10.34-10s4.629-10 10.34-10c5.71 0 10.339 4.477 10.339 10 5.711 0 10.34 4.477 10.34 10s-4.629 10-10.34 10c-5.71 0-10.339-4.477-10.339-10zm8.271-10c0-4.418-3.703-8-8.271-8-4.568 0-8.272 3.582-8.272 8s3.704 8 8.272 8 8.271-3.582 8.271-8zm41.358-40c0-4.418-3.703-8-8.271-8-4.568 0-8.272 3.582-8.272 8s3.704 8 8.272 8 8.271-3.582 8.271-8zm-8.271-72c-5.711 0-10.34-4.477-10.34-10s4.629-10 10.34-10c5.71 0 10.339 4.477 10.339 10 5.711 0 10.34 4.477 10.34 10s-4.629 10-10.34 10c-5.71 0-10.339-4.477-10.339-10zm-41.358 40c-5.711 0-10.34-4.477-10.34-10s4.629-10 10.34-10c5.71 0 10.339 4.477 10.339 10 5.711 0 10.34 4.477 10.34 10s-4.629 10-10.34 10c-5.71 0-10.339-4.477-10.339-10zm8.271-10c0-4.418-3.703-8-8.271-8-4.568 0-8.272 3.582-8.272 8s3.704 8 8.272 8 8.271-3.582 8.271-8zm41.358-40c0-4.418-3.703-8-8.271-8-4.568 0-8.272 3.582-8.272 8s3.704 8 8.272 8 8.271-3.582 8.271-8zm-8.271-72c-5.711 0-10.34-4.477-10.34-10s4.629-10 10.34-10c5.71 0 10.339 4.477 10.339 10 5.711 0 10.34 4.477 10.34 10s-4.629 10-10.34 10c-5.71 0-10.339-4.477-10.339-10zm-41.358 40c-5.711 0-10.34-4.477-10.34-10s4.629-10 10.34-10c5.71 0 10.339 4.477 10.339 10 5.711 0 10.34 4.477 10.34 10s-4.629 10-10.34 10c-5.71 0-10.339-4.477-10.339-10zm8.271-10c0-4.418-3.703-8-8.271-8-4.568 0-8.272 3.582-8.272 8s3.704 8 8.272 8 8.271-3.582 8.271-8zm41.358-40c0-4.418-3.703-8-8.271-8-4.568 0-8.272 3.582-8.272 8s3.704 8 8.272 8 8.271-3.582 8.271-8zm-8.271-72c-5.711 0-10.34-4.477-10.34-10s4.629-10 10.34-10c5.71 0 10.339 4.477 10.339 10 5.711 0 10.34 4.477 10.34 10s-4.629 10-10.34 10c-5.71 0-10.339-4.477-10.339-10zm-41.358 40c-5.711 0-10.34-4.477-10.34-10s4.629-10 10.34-10c5.71 0 10.339 4.477 10.339 10 5.711 0 10.34 4.477 10.34 10s-4.629 10-10.34 10c-5.71 0-10.339-4.477-10.339-10zm8.271-10c0-4.418-3.703-8-8.271-8-4.568 0-8.272 3.582-8.272 8s3.704 8 8.272 8 8.271-3.582 8.271-8zm41.358-40c0-4.418-3.703-8-8.271-8-4.568 0-8.272 3.582-8.272 8s3.704 8 8.272 8 8.271-3.582 8.271-8zm76.513 420c-5.711 0-10.34-4.477-10.34-10s4.629-10 10.34-10c5.71 0 10.339 4.477 10.339 10 5.711 0 10.34 4.477 10.34 10s-4.629 10-10.34 10c-5.71 0-10.339-4.477-10.339-10zm-41.358 40c-5.711 0-10.34-4.477-10.34-10s4.629-10 10.34-10c5.71 0 10.339 4.477 10.339 10 5.711 0 10.34 4.477 10.34 10s-4.629 10-10.34 10c-5.71 0-10.339-4.477-10.339-10zm8.271-10c0-4.418-3.703-8-8.271-8-4.568 0-8.272 3.582-8.272 8s3.704 8 8.272 8 8.271-3.582 8.271-8zm41.358-40c0-4.418-3.703-8-8.271-8-4.568 0-8.272 3.582-8.272 8s3.704 8 8.272 8 8.271-3.582 8.271-8zm-8.271-72c-5.711 0-10.34-4.477-10.34-10s4.629-10 10.34-10c5.71 0 10.339 4.477 10.339 10 5.711 0 10.34 4.477 10.34 10s-4.629 10-10.34 10c-5.71 0-10.339-4.477-10.339-10zm-41.358 40c-5.711 0-10.34-4.477-10.34-10s4.629-10 10.34-10c5.71 0 10.339 4.477 10.339 10 5.711 0 10.34 4.477 10.34 10s-4.629 10-10.34 10c-5.71 0-10.339-4.477-10.339-10zm8.271-10c0-4.418-3.703-8-8.271-8-4.568 0-8.272 3.582-8.272 8s3.704 8 8.272 8 8.271-3.582 8.271-8zm41.358-40c0-4.418-3.703-8-8.271-8-4.568 0-8.272 3.582-8.272 8s3.704 8 8.272 8 8.271-3.582 8.271-8zm-8.271-72c-5.711 0-10.34-4.477-10.34-10s4.629-10 10.34-10c5.71 0 10.339 4.477 10.339 10 5.711 0 10.34 4.477 10.34 10s-4.629 10-10.34 10c-5.71 0-10.339-4.477-10.339-10zm-41.358 40c-5.711 0-10.34-4.477-10.34-10s4.629-10 10.34-10c5.71 0 10.339 4.477 10.339 10 5.711 0 10.34 4.477 10.34 10s-4.629 10-10.34 10c-5.71 0-10.339-4.477-10.339-10zm8.271-10c0-4.418-3.703-8-8.271-8-4.568 0-8.272 3.582-8.272 8s3.704 8 8.272 8 8.271-3.582 8.271-8zm41.358-40c0-4.418-3.703-8-8.271-8-4.568 0-8.272 3.582-8.272 8s3.704 8 8.272 8 8.271-3.582 8.271-8zm-8.271-72c-5.711 0-10.34-4.477-10.34-10s4.629-10 10.34-10c5.71 0 10.339 4.477 10.339 10 5.711 0 10.34 4.477 10.34 10s-4.629 10-10.34 10c-5.71 0-10.339-4.477-10.339-10zm-41.358 40c-5.711 0-10.34-4.477-10.34-10s4.629-10 10.34-10c5.71 0 10.339 4.477 10.339 10 5.711 0 10.34 4.477 10.34 10s-4.629 10-10.34 10c-5.71 0-10.339-4.477-10.339-10zm8.271-10c0-4.418-3.703-8-8.271-8-4.568 0-8.272 3.582-8.272 8s3.704 8 8.272 8 8.271-3.582 8.271-8zm41.358-40c0-4.418-3.703-8-8.271-8-4.568 0-8.272 3.582-8.272 8s3.704 8 8.272 8 8.271-3.582 8.271-8zm-8.271-72c-5.711 0-10.34-4.477-10.34-10s4.629-10 10.34-10c5.71 0 10.339 4.477 10.339 10 5.711 0 10.34 4.477 10.34 10s-4.629 10-10.34 10c-5.71 0-10.339-4.477-10.339-10zm-41.358 40c-5.711 0-10.34-4.477-10.34-10s4.629-10 10.34-10c5.71 0 10.339 4.477 10.339 10 5.711 0 10.34 4.477 10.34 10s-4.629 10-10.34 10c-5.71 0-10.339-4.477-10.339-10zm8.271-10c0-4.418-3.703-8-8.271-8-4.568 0-8.272 3.582-8.272 8s3.704 8 8.272 8 8.271-3.582 8.271-8zm41.358-40c0-4.418-3.703-8-8.271-8-4.568 0-8.272 3.582-8.272 8s3.704 8 8.272 8 8.271-3.582 8.271-8zm-8.271-72c-5.711 0-10.34-4.477-10.34-10s4.629-10 10.34-10c5.71 0 10.339 4.477 10.339 10 5.711 0 10.34 4.477 10.34 10s-4.629 10-10.34 10c-5.71 0-10.339-4.477-10.339-10zm-41.358 40c-5.711 0-10.34-4.477-10.34-10s4.629-10 10.34-10c5.71 0 10.339 4.477 10.339 10 5.711 0 10.34 4.477 10.34 10s-4.629 10-10.34 10c-5.71 0-10.339-4.477-10.339-10zm8.271-10c0-4.418-3.703-8-8.271-8-4.568 0-8.272 3.582-8.272 8s3.704 8 8.272 8 8.271-3.582 8.271-8zm41.358-40c0-4.418-3.703-8-8.271-8-4.568 0-8.272 3.582-8.272 8s3.704 8 8.272 8 8.271-3.582 8.271-8zm76.512 420c-5.71 0-10.339-4.477-10.339-10s4.629-10 10.339-10c5.711 0 10.34 4.477 10.34 10 5.71 0 10.339 4.477 10.339 10s-4.629 10-10.339 10c-5.711 0-10.34-4.477-10.34-10zm-41.358 40c-5.71 0-10.339-4.477-10.339-10s4.629-10 10.339-10c5.711 0 10.34 4.477 10.34 10 5.71 0 10.339 4.477 10.339 10s-4.629 10-10.339 10c-5.711 0-10.34-4.477-10.34-10zm8.272-10c0-4.418-3.704-8-8.272-8s-8.271 3.582-8.271 8 3.703 8 8.271 8c4.568 0 8.272-3.582 8.272-8zm41.358-40c0-4.418-3.704-8-8.272-8s-8.271 3.582-8.271 8 3.703 8 8.271 8c4.568 0 8.272-3.582 8.272-8zm-8.272-72c-5.71 0-10.339-4.477-10.339-10s4.629-10 10.339-10c5.711 0 10.34 4.477 10.34 10 5.71 0 10.339 4.477 10.339 10s-4.629 10-10.339 10c-5.711 0-10.34-4.477-10.34-10zm-41.358 40c-5.71 0-10.339-4.477-10.339-10s4.629-10 10.339-10c5.711 0 10.34 4.477 10.34 10 5.71 0 10.339 4.477 10.339 10s-4.629 10-10.339 10c-5.711 0-10.34-4.477-10.34-10zm8.272-10c0-4.418-3.704-8-8.272-8s-8.271 3.582-8.271 8 3.703 8 8.271 8c4.568 0 8.272-3.582 8.272-8zm41.358-40c0-4.418-3.704-8-8.272-8s-8.271 3.582-8.271 8 3.703 8 8.271 8c4.568 0 8.272-3.582 8.272-8zm-8.272-72c-5.71 0-10.339-4.477-10.339-10s4.629-10 10.339-10c5.711 0 10.34 4.477 10.34 10 5.71 0 10.339 4.477 10.339 10s-4.629 10-10.339 10c-5.711 0-10.34-4.477-10.34-10zm-41.358 40c-5.71 0-10.339-4.477-10.339-10s4.629-10 10.339-10c5.711 0 10.34 4.477 10.34 10 5.71 0 10.339 4.477 10.339 10s-4.629 10-10.339 10c-5.711 0-10.34-4.477-10.34-10zm8.272-10c0-4.418-3.704-8-8.272-8s-8.271 3.582-8.271 8 3.703 8 8.271 8c4.568 0 8.272-3.582 8.272-8zm41.358-40c0-4.418-3.704-8-8.272-8s-8.271 3.582-8.271 8 3.703 8 8.271 8c4.568 0 8.272-3.582 8.272-8zm-8.272-72c-5.71 0-10.339-4.477-10.339-10s4.629-10 10.339-10c5.711 0 10.34 4.477 10.34 10 5.71 0 10.339 4.477 10.339 10s-4.629 10-10.339 10c-5.711 0-10.34-4.477-10.34-10zm-41.358 40c-5.71 0-10.339-4.477-10.339-10s4.629-10 10.339-10c5.711 0 10.34 4.477 10.34 10 5.71 0 10.339 4.477 10.339 10s-4.629 10-10.339 10c-5.711 0-10.34-4.477-10.34-10zm8.272-10c0-4.418-3.704-8-8.272-8s-8.271 3.582-8.271 8 3.703 8 8.271 8c4.568 0 8.272-3.582 8.272-8zm41.358-40c0-4.418-3.704-8-8.272-8s-8.271 3.582-8.271 8 3.703 8 8.271 8c4.568 0 8.272-3.582 8.272-8zm-8.272-72c-5.71 0-10.339-4.477-10.339-10s4.629-10 10.339-10c5.711 0 10.34 4.477 10.34 10 5.71 0 10.339 4.477 10.339 10s-4.629 10-10.339 10c-5.711 0-10.34-4.477-10.34-10zm-41.358 40c-5.71 0-10.339-4.477-10.339-10s4.629-10 10.339-10c5.711 0 10.34 4.477 10.34 10 5.71 0 10.339 4.477 10.339 10s-4.629 10-10.339 10c-5.711 0-10.34-4.477-10.34-10zm8.272-10c0-4.418-3.704-8-8.272-8s-8.271 3.582-8.271 8 3.703 8 8.271 8c4.568 0 8.272-3.582 8.272-8zm41.358-40c0-4.418-3.704-8-8.272-8s-8.271 3.582-8.271 8 3.703 8 8.271 8c4.568 0 8.272-3.582 8.272-8zm-8.272-72c-5.71 0-10.339-4.477-10.339-10s4.629-10 10.339-10c5.711 0 10.34 4.477 10.34 10 5.71 0 10.339 4.477 10.339 10s-4.629 10-10.339 10c-5.711 0-10.34-4.477-10.34-10zm-41.358 40c-5.71 0-10.339-4.477-10.339-10s4.629-10 10.339-10c5.711 0 10.34 4.477 10.34 10 5.71 0 10.339 4.477 10.339 10s-4.629 10-10.339 10c-5.711 0-10.34-4.477-10.34-10zm8.272-10c0-4.418-3.704-8-8.272-8s-8.271 3.582-8.271 8 3.703 8 8.271 8c4.568 0 8.272-3.582 8.272-8zm41.358-40c0-4.418-3.704-8-8.272-8s-8.271 3.582-8.271 8 3.703 8 8.271 8c4.568 0 8.272-3.582 8.272-8zm76.513 420c-5.711 0-10.34-4.477-10.34-10s4.629-10 10.34-10c5.71 0 10.339 4.477 10.339 10 5.711 0 10.34 4.477 10.34 10s-4.629 10-10.34 10c-5.71 0-10.339-4.477-10.339-10zm-41.358 40c-5.711 0-10.34-4.477-10.34-10s4.629-10 10.34-10c5.71 0 10.339 4.477 10.339 10 5.711 0 10.34 4.477 10.34 10s-4.629 10-10.34 10c-5.71 0-10.339-4.477-10.339-10zm8.271-10c0-4.418-3.703-8-8.271-8-4.568 0-8.272 3.582-8.272 8s3.704 8 8.272 8 8.271-3.582 8.271-8zm41.358-40c0-4.418-3.703-8-8.271-8-4.568 0-8.272 3.582-8.272 8s3.704 8 8.272 8 8.271-3.582 8.271-8zm-8.271-72c-5.711 0-10.34-4.477-10.34-10s4.629-10 10.34-10c5.71 0 10.339 4.477 10.339 10 5.711 0 10.34 4.477 10.34 10s-4.629 10-10.34 10c-5.71 0-10.339-4.477-10.339-10zm-41.358 40c-5.711 0-10.34-4.477-10.34-10s4.629-10 10.34-10c5.71 0 10.339 4.477 10.339 10 5.711 0 10.34 4.477 10.34 10s-4.629 10-10.34 10c-5.71 0-10.339-4.477-10.339-10zm8.271-10c0-4.418-3.703-8-8.271-8-4.568 0-8.272 3.582-8.272 8s3.704 8 8.272 8 8.271-3.582 8.271-8zm41.358-40c0-4.418-3.703-8-8.271-8-4.568 0-8.272 3.582-8.272 8s3.704 8 8.272 8 8.271-3.582 8.271-8zm-8.271-72c-5.711 0-10.34-4.477-10.34-10s4.629-10 10.34-10c5.71 0 10.339 4.477 10.339 10 5.711 0 10.34 4.477 10.34 10s-4.629 10-10.34 10c-5.71 0-10.339-4.477-10.339-10zm-41.358 40c-5.711 0-10.34-4.477-10.34-10s4.629-10 10.34-10c5.71 0 10.339 4.477 10.339 10 5.711 0 10.34 4.477 10.34 10s-4.629 10-10.34 10c-5.71 0-10.339-4.477-10.339-10zm8.271-10c0-4.418-3.703-8-8.271-8-4.568 0-8.272 3.582-8.272 8s3.704 8 8.272 8 8.271-3.582 8.271-8zm41.358-40c0-4.418-3.703-8-8.271-8-4.568 0-8.272 3.582-8.272 8s3.704 8 8.272 8 8.271-3.582 8.271-8zm-8.271-72c-5.711 0-10.34-4.477-10.34-10s4.629-10 10.34-10c5.71 0 10.339 4.477 10.339 10 5.711 0 10.34 4.477 10.34 10s-4.629 10-10.34 10c-5.71 0-10.339-4.477-10.339-10zm-41.358 40c-5.711 0-10.34-4.477-10.34-10s4.629-10 10.34-10c5.71 0 10.339 4.477 10.339 10 5.711 0 10.34 4.477 10.34 10s-4.629 10-10.34 10c-5.71 0-10.339-4.477-10.339-10zm8.271-10c0-4.418-3.703-8-8.271-8-4.568 0-8.272 3.582-8.272 8s3.704 8 8.272 8 8.271-3.582 8.271-8zm41.358-40c0-4.418-3.703-8-8.271-8-4.568 0-8.272 3.582-8.272 8s3.704 8 8.272 8 8.271-3.582 8.271-8zm-8.271-72c-5.711 0-10.34-4.477-10.34-10s4.629-10 10.34-10c5.71 0 10.339 4.477 10.339 10 5.711 0 10.34 4.477 10.34 10s-4.629 10-10.34 10c-5.71 0-10.339-4.477-10.339-10zm-41.358 40c-5.711 0-10.34-4.477-10.34-10s4.629-10 10.34-10c5.71 0 10.339 4.477 10.339 10 5.711 0 10.34 4.477 10.34 10s-4.629 10-10.34 10c-5.71 0-10.339-4.477-10.339-10zm8.271-10c0-4.418-3.703-8-8.271-8-4.568 0-8.272 3.582-8.272 8s3.704 8 8.272 8 8.271-3.582 8.271-8zm41.358-40c0-4.418-3.703-8-8.271-8-4.568 0-8.272 3.582-8.272 8s3.704 8 8.272 8 8.271-3.582 8.271-8zm-8.271-72c-5.711 0-10.34-4.477-10.34-10s4.629-10 10.34-10c5.71 0 10.339 4.477 10.339 10 5.711 0 10.34 4.477 10.34 10s-4.629 10-10.34 10c-5.71 0-10.339-4.477-10.339-10zm-41.358 40c-5.711 0-10.34-4.477-10.34-10s4.629-10 10.34-10c5.71 0 10.339 4.477 10.339 10 5.711 0 10.34 4.477 10.34 10s-4.629 10-10.34 10c-5.71 0-10.339-4.477-10.339-10zm8.271-10c0-4.418-3.703-8-8.271-8-4.568 0-8.272 3.582-8.272 8s3.704 8 8.272 8 8.271-3.582 8.271-8zm41.358-40c0-4.418-3.703-8-8.271-8-4.568 0-8.272 3.582-8.272 8s3.704 8 8.272 8 8.271-3.582 8.271-8zm-262.623-72c-5.711 0-10.34-4.477-10.34-10s4.629-10 10.34-10c5.71 0 10.339 4.477 10.339 10 5.711 0 10.34 4.477 10.34 10s-4.629 10-10.34 10c-5.71 0-10.339-4.477-10.339-10zm-41.358 40c-5.711 0-10.34-4.477-10.34-10s4.629-10 10.34-10c5.71 0 10.339 4.477 10.339 10 5.711 0 10.34 4.477 10.34 10s-4.629 10-10.34 10c-5.71 0-10.339-4.477-10.339-10zm8.271-10c0-4.418-3.703-8-8.271-8-4.568 0-8.272 3.582-8.272 8s3.704 8 8.272 8 8.271-3.582 8.271-8zm41.358-40c0-4.418-3.703-8-8.271-8-4.568 0-8.272 3.582-8.272 8s3.704 8 8.272 8 8.271-3.582 8.271-8zm76.513 10c-5.711 0-10.34-4.477-10.34-10s4.629-10 10.34-10c5.71 0 10.339 4.477 10.339 10 5.711 0 10.34 4.477 10.34 10s-4.629 10-10.34 10c-5.71 0-10.339-4.477-10.339-10zm-41.358 40c-5.711 0-10.34-4.477-10.34-10s4.629-10 10.34-10c5.71 0 10.339 4.477 10.339 10 5.711 0 10.34 4.477 10.34 10s-4.629 10-10.34 10c-5.71 0-10.339-4.477-10.339-10zm8.271-10c0-4.418-3.703-8-8.271-8-4.568 0-8.272 3.582-8.272 8s3.704 8 8.272 8 8.271-3.582 8.271-8zm41.358-40c0-4.418-3.703-8-8.271-8-4.568 0-8.272 3.582-8.272 8s3.704 8 8.272 8 8.271-3.582 8.271-8zm76.512 10c-5.71 0-10.339-4.477-10.339-10s4.629-10 10.339-10c5.711 0 10.34 4.477 10.34 10 5.71 0 10.339 4.477 10.339 10s-4.629 10-10.339 10c-5.711 0-10.34-4.477-10.34-10zm-41.358 40c-5.71 0-10.339-4.477-10.339-10s4.629-10 10.339-10c5.711 0 10.34 4.477 10.34 10 5.71 0 10.339 4.477 10.339 10s-4.629 10-10.339 10c-5.711 0-10.34-4.477-10.34-10zm8.272-10c0-4.418-3.704-8-8.272-8s-8.271 3.582-8.271 8 3.703 8 8.271 8c4.568 0 8.272-3.582 8.272-8zm41.358-40c0-4.418-3.704-8-8.272-8s-8.271 3.582-8.271 8 3.703 8 8.271 8c4.568 0 8.272-3.582 8.272-8zm76.513 10c-5.711 0-10.34-4.477-10.34-10s4.629-10 10.34-10c5.71 0 10.339 4.477 10.339 10 5.711 0 10.34 4.477 10.34 10s-4.629 10-10.34 10c-5.71 0-10.339-4.477-10.339-10zm-41.358 40c-5.711 0-10.34-4.477-10.34-10s4.629-10 10.34-10c5.71 0 10.339 4.477 10.339 10 5.711 0 10.34 4.477 10.34 10s-4.629 10-10.34 10c-5.71 0-10.339-4.477-10.339-10zm8.271-10c0-4.418-3.703-8-8.271-8-4.568 0-8.272 3.582-8.272 8s3.704 8 8.272 8 8.271-3.582 8.271-8zm41.358-40c0-4.418-3.703-8-8.271-8-4.568 0-8.272 3.582-8.272 8s3.704 8 8.272 8 8.271-3.582 8.271-8z"/></g><g filter="url(#filter0_iiii)"><path d="M632.786 158.51c32.277 38.95-27.455 121.028-7.038 170.142 26.713 64.261 122.232 65.745 134.878 137.388 12.835 72.715-26.101 157.329-71.333 222.618-48.922 70.615-115.381 133.505-188.932 153.055-72.687 19.32-143.943-7.791-200.195-49.627-49.844-37.071-61.013-111.578-93.162-168.554-31.081-55.082-92.869-90.831-92.68-160.803.19-70.091 44.395-141.978 93.642-194.021 43.556-46.03 103.371-51.69 157.924-71.832 41.683-15.391 81.687-26.169 123.943-32.243 48.972-7.039 112.163-43.279 142.953-6.123z" fill="#484C9A"/></g><defs><clipPath id="clip0"><path fill="#fff" transform="rotate(-90 455.998 358.999)" d="M0 0h566v335H0z"/></clipPath><filter id="filter0_iiii" x=".337" y=".986" width="893.36" height="948.078" filterUnits="userSpaceOnUse" color-interpolation-filters="sRGB"><feFlood flood-opacity="0" result="BackgroundImageFix"/><feBlend in="SourceGraphic" in2="BackgroundImageFix" result="shape"/><feColorMatrix in="SourceAlpha" values="0 0 0 0 0 0 0 0 0 0 0 0 0 0 0 0 0 0 127 0" result="hardAlpha"/><feOffset dy="16"/><feGaussianBlur stdDeviation="16"/><feComposite in2="hardAlpha" operator="arithmetic" k2="-1" k3="1"/><feColorMatrix values="0 0 0 0 0 0 0 0 0 0 0 0 0 0 0 0 0 0 0.16 0"/><feBlend in2="shape" result="effect1_innerShadow"/><feColorMatrix in="SourceAlpha" values="0 0 0 0 0 0 0 0 0 0 0 0 0 0 0 0 0 0 127 0" result="hardAlpha"/><feOffset dy="8"/><feGaussianBlur stdDeviation="8"/><feComposite in2="hardAlpha" operator="arithmetic" k2="-1" k3="1"/><feColorMatrix values="0 0 0 0 0 0 0 0 0 0 0 0 0 0 0 0 0 0 0.12 0"/><feBlend in2="effect1_innerShadow" result="effect2_innerShadow"/><feColorMatrix in="SourceAlpha" values="0 0 0 0 0 0 0 0 0 0 0 0 0 0 0 0 0 0 127 0" result="hardAlpha"/><feOffset dy="4"/><feGaussianBlur stdDeviation="4"/><feComposite in2="hardAlpha" operator="arithmetic" k2="-1" k3="1"/><feColorMatrix values="0 0 0 0 0 0 0 0 0 0 0 0 0 0 0 0 0 0 0.12 0"/><feBlend in2="effect2_innerShadow" result="effect3_innerShadow"/><feColorMatrix in="SourceAlpha" values="0 0 0 0 0 0 0 0 0 0 0 0 0 0 0 0 0 0 127 0" result="hardAlpha"/><feOffset dy="2"/><feGaussianBlur stdDeviation="2"/><feComposite in2="hardAlpha" operator="arithmetic" k2="-1" k3="1"/><feColorMatrix values="0 0 0 0 0 0 0 0 0 0 0 0 0 0 0 0 0 0 0.12 0"/><feBlend in2="effect3_innerShadow" result="effect4_innerShadow"/></filter></defs></svg>