<svg width="64" height="63" fill="none" xmlns="http://www.w3.org/2000/svg"><path d="M48.407 54.14v-8.859h5.907V56.11a3.937 3.937 0 01-3.938 3.938h-1.969V54.14z" fill="#F6BB92"/><path d="M53.052 39.375L54 37.042l.84-2.07a6.295 6.295 0 00.349-3.524 6.154 6.154 0 00-1.604-3.127 6.198 6.198 0 01-1.712-4.296v-5.65h-24.65v5.65a6.198 6.198 0 01-1.712 4.296 6.153 6.153 0 00-1.604 3.127 6.296 6.296 0 00.348 3.524l.89 2.2 27.907 2.203z" fill="#834B10"/><path d="M54.313 40.441a5.906 5.906 0 00-4.935-5.826l-.97-.162-5.084-.847-3.776 3.8-3.816-3.83-7.012.877v25.594h19.687v-7.875a5.569 5.569 0 00.783-6.89h5.123V40.44z" fill="#5D62B5"/><path d="M52.673 23.625h-26.25v-7.412c0-3.604 1.383-7.06 3.844-9.608 2.461-2.548 5.8-3.98 9.28-3.98 3.482 0 6.82 1.432 9.282 3.98 2.461 2.548 3.844 6.004 3.844 9.608v7.412z" fill="#834B10"/><path d="M47.423 16.734v-.984l-.985-4.922h-13.78l-.985 4.922v.984a2.953 2.953 0 00-2.953 2.953c0 .784.31 4.697.865 5.25.553.554.274-.16 1.057-.16l-.282.16h1.313c0 1.828 1.71 2.268 3.002 3.56a6.89 6.89 0 009.745 0c1.292-1.292 2.018-1.893 2.018-3.72l.985.16h1.312c.784 0 .222.393.776-.16.554-.555.865-4.306.865-5.09a2.953 2.953 0 00-2.953-2.953z" fill="#F6BB92"/><path d="M38.563 41.165v18.882H16.538a19.009 19.009 0 012.55-3.165l.072-.073a19.51 19.51 0 004.148-6.12c.387-.9.772-1.801 1.052-2.455l.422-.984H21.95a3.94 3.94 0 01-3.82-2.983l-.485-1.939-.126-.507a1.969 1.969 0 011.91-2.446h3.385a8.411 8.411 0 013.653-4.555l.43-.258a7.68 7.68 0 017.38-.284l.044.023a7.675 7.675 0 014.242 6.864z" fill="#4B4B4B"/><path d="M38.563 41.344v2.793a2.953 2.953 0 01-5.906 0v-4.762h3.938l1.968 1.969zm-9.147 4.634l-1.969 1.968a.985.985 0 01-.696.288h-2.39l.421-.984H21.95c-.959 0-1.885-.35-2.603-.984h6.997l1.68-1.681a.985.985 0 011.392 1.393zm-8.571-6.603v1.19a1.763 1.763 0 01-1.764 1.763h-1.436l-.126-.507a1.969 1.969 0 011.91-2.446h1.416zm3.053 18.24a.985.985 0 01-.787-1.575 18.167 18.167 0 002.706-5.164.982.982 0 011.248-.631.986.986 0 01.62 1.254 20.13 20.13 0 01-3 5.723.982.982 0 01-.787.393z" fill="#000"/><path d="M31.673 16.734a6.71 6.71 0 004.11-3.874l.812-2.032-4.922-.984v6.89zm4.922-5.906l.115.173a12.875 12.875 0 0010.713 5.733v-6.89l-10.828.984z" fill="#834B10"/><path d="M35.528 20.836a1.23 1.23 0 100-2.461 1.23 1.23 0 000 2.46zm5.25 0a1.23 1.23 0 100-2.461 1.23 1.23 0 000 2.46z" fill="#000"/><path d="M45.454 42.328a.984.984 0 01-.984-.984v-6.89a.984.984 0 011.968 0v6.89a.984.984 0 01-.984.984z" fill="#C3C3C3"/><path d="M45.454 47.25a2.953 2.953 0 100-5.906 2.953 2.953 0 000 5.906z" fill="#E4E4E2"/><path d="M45.454 45.281a.984.984 0 100-1.968.984.984 0 000 1.968z" fill="#C3C3C3"/><path d="M49.392 60.047H34.626a2.953 2.953 0 010-5.906h.984a1.969 1.969 0 011.97-1.97h.168c.522 0 1.023.208 1.392.578l1.392 1.392h8.86v5.906zm-32.745-4.57a2.456 2.456 0 001.573 3.375l3.79 1.07a2.953 2.953 0 001.605-5.683l-.947-.267a1.97 1.97 0 00-1.36-2.43l-.162-.046a1.97 1.97 0 00-1.496.176 5.975 5.975 0 00-2.529 2.755l-.474 1.05z" fill="#F6BB92"/><path d="M11.622 23.625c.942 0 1.845.434 2.511 1.206l1.79 2.075 1.789-2.075c.666-.772 1.569-1.206 2.51-1.206.793 0 1.562.307 2.186.872.625.566 1.068 1.357 1.26 2.248a5.797 5.797 0 01-.162 3.037c-.323.969-.896 1.798-1.642 2.374l-5.941 4.594-5.942-4.594c-.745-.576-1.318-1.405-1.641-2.374a5.796 5.796 0 01-.162-3.037c.192-.891.635-1.682 1.26-2.248.623-.565 1.393-.872 2.184-.872z" fill="#5D62B5"/><path d="M31.673 16.734h.984v5.907h-.984v-5.907zm14.765 0h.985v5.907h-.985v-5.907z" fill="#EEB58E"/><path d="M35.733 33.577l3.815 3.83 3.776-3.801a.984.984 0 01-.822-.971V29.53h-5.907v3.07a.984.984 0 01-.862.977z" fill="#F6BB92"/><path d="M39.548 31.5c-2.785 0-5.456-.968-7.425-2.691-1.969-1.723-3.075-4.06-3.075-6.497V21h21v1.313c0 2.436-1.106 4.773-3.076 6.496-1.969 1.723-4.64 2.691-7.424 2.691z" fill="#5D62B5"/><path d="M27.735 41.344a.984.984 0 100-1.969.984.984 0 000 1.969z" fill="#000"/></svg>