<svg width="76" height="72" fill="none" xmlns="http://www.w3.org/2000/svg"><path d="M69.557 62.687a6.33 6.33 0 00-7.49-5.027V35.258l2.27 2.27a3.954 3.954 0 005.592-5.59l-7.862-7.863V8.133A2.533 2.533 0 0064.6 5.6V3.067A2.533 2.533 0 0062.067.533H49.4a2.533 2.533 0 00-2.533 2.534V5.6A2.533 2.533 0 0049.4 8.133v3.276l-8.713-8.714a3.892 3.892 0 00-5.374 0L6.071 31.938a3.954 3.954 0 005.591 5.59l2.271-2.27v26.559a5.045 5.045 0 00-8.866 3.316A5.067 5.067 0 000 70.2c0 .7.567 1.266 1.267 1.266h73.466c.7 0 1.267-.567 1.267-1.266a7.613 7.613 0 00-6.443-7.513zm-11.3-2.569c0-.017.01-.032.01-.052v-7.6c0-.699-.568-1.266-1.267-1.266h-7.6c-.7 0-1.267.567-1.267 1.267v7.6c0 .699.567 1.266 1.267 1.266H57a1.23 1.23 0 00.648-.204A6.267 6.267 0 0057 63.867v.126a6.343 6.343 0 00-4.928 4.94h-5.205v-19c0-.7-.567-1.267-1.267-1.267H30.4c-.7 0-1.267.568-1.267 1.267v19h-7.712a7.617 7.617 0 00-4.954-5.892V33.467h43.066v25.366a6.29 6.29 0 00-1.276 1.285zm-2.524-6.385V58.8h-5.066v-5.067h5.066zM49.4 3.067h12.667V5.6H49.4V3.067zm2.533 5.066h7.6v13.41l-7.6-7.6v-5.81zM9.871 35.738a1.42 1.42 0 11-2.009-2.01l29.242-29.24a1.266 1.266 0 011.792 0L68.138 33.73a1.42 1.42 0 11-2.01 2.009l-25.44-25.444a3.8 3.8 0 00-5.374 0L9.871 35.738zm27.233-23.651a1.266 1.266 0 011.792 0l18.846 18.846H18.258l18.846-18.846zM2.874 68.933a2.525 2.525 0 013.301-.996 1.265 1.265 0 001.696-1.695 2.503 2.503 0 01-.271-1.109 2.523 2.523 0 014.91-.827 1.267 1.267 0 001.423.827 5.078 5.078 0 014.907 3.8H2.874zm28.793 0V51.2h12.666v17.733H31.667zm23.016 0a3.77 3.77 0 013.505-2.533c.043 0 .17.019.213.02a1.264 1.264 0 001.275-1.59 3.746 3.746 0 01-.143-.963 3.8 3.8 0 017.6 0c0 .699.568 1.266 1.267 1.266a5.079 5.079 0 014.907 3.8H54.683z" fill="#5D62B5"/></svg>