<svg width="12" height="14" fill="none" xmlns="http://www.w3.org/2000/svg"><path fill-rule="evenodd" clip-rule="evenodd" d="M4.668 0h2.666c.367 0 .667.3.667.667 0 .366-.3.666-.667.666H4.668A.669.669 0 014 .667C4 .3 4.3 0 4.667 0zm2 8c0 .367-.3.667-.667.667A.669.669 0 015.334 8V5.333c0-.366.3-.666.667-.666.367 0 .667.3.667.666V8zm4.02-3.74l.5-.5a.662.662 0 000-.933l-.007-.007a.662.662 0 00-.933 0l-.5.5A5.974 5.974 0 006 2C2.8 2 .08 4.64 0 7.84A5.999 5.999 0 006 14a5.996 5.996 0 004.687-9.74zM1.334 8a4.663 4.663 0 004.667 4.667A4.663 4.663 0 0010.668 8 4.663 4.663 0 006 3.333 4.663 4.663 0 001.334 8z" fill="#F2726F"/></svg>