<svg width="894" height="934" viewBox="0 0 894 934" fill="none" xmlns="http://www.w3.org/2000/svg">
<g clip-path="url(#clip0)">
<path fill-rule="evenodd" clip-rule="evenodd" d="M148.697 764.997C142.986 764.997 138.357 760.52 138.357 754.997C138.357 749.474 142.986 744.997 148.697 744.997C154.407 744.997 159.036 749.474 159.036 754.997C164.747 754.997 169.376 759.474 169.376 764.997C169.376 770.52 164.747 774.997 159.036 774.997C153.326 774.997 148.697 770.52 148.697 764.997ZM107.339 804.997C101.628 804.997 96.999 800.52 96.999 794.997C96.999 789.474 101.628 784.997 107.339 784.997C113.049 784.997 117.678 789.474 117.678 794.997C123.389 794.997 128.018 799.474 128.018 804.997C128.018 810.52 123.389 814.997 117.678 814.997C111.968 814.997 107.339 810.52 107.339 804.997ZM115.61 794.997C115.61 790.579 111.907 786.997 107.339 786.997C102.771 786.997 99.0669 790.579 99.0669 794.997C99.0669 799.415 102.771 802.997 107.339 802.997C111.907 802.997 115.61 799.415 115.61 794.997ZM156.968 754.997C156.968 750.579 153.265 746.997 148.697 746.997C144.129 746.997 140.425 750.579 140.425 754.997C140.425 759.415 144.129 762.997 148.697 762.997C153.265 762.997 156.968 759.415 156.968 754.997Z" fill="black"/>
<path fill-rule="evenodd" clip-rule="evenodd" d="M148.697 682.997C142.986 682.997 138.357 678.52 138.357 672.997C138.357 667.474 142.986 662.997 148.697 662.997C154.407 662.997 159.036 667.474 159.036 672.997C164.747 672.997 169.376 677.474 169.376 682.997C169.376 688.52 164.747 692.997 159.036 692.997C153.326 692.997 148.697 688.52 148.697 682.997ZM107.339 722.997C101.628 722.997 96.999 718.52 96.999 712.997C96.999 707.474 101.628 702.997 107.339 702.997C113.049 702.997 117.678 707.474 117.678 712.997C123.389 712.997 128.018 717.474 128.018 722.997C128.018 728.52 123.389 732.997 117.678 732.997C111.968 732.997 107.339 728.52 107.339 722.997ZM115.61 712.997C115.61 708.579 111.907 704.997 107.339 704.997C102.771 704.997 99.0669 708.579 99.0669 712.997C99.0669 717.415 102.771 720.997 107.339 720.997C111.907 720.997 115.61 717.415 115.61 712.997ZM156.968 672.997C156.968 668.579 153.265 664.997 148.697 664.997C144.129 664.997 140.425 668.579 140.425 672.997C140.425 677.415 144.129 680.997 148.697 680.997C153.265 680.997 156.968 677.415 156.968 672.997Z" fill="black"/>
<path fill-rule="evenodd" clip-rule="evenodd" d="M148.697 600.997C142.986 600.997 138.357 596.52 138.357 590.997C138.357 585.474 142.986 580.997 148.697 580.997C154.407 580.997 159.036 585.474 159.036 590.997C164.747 590.997 169.376 595.474 169.376 600.997C169.376 606.52 164.747 610.997 159.036 610.997C153.326 610.997 148.697 606.52 148.697 600.997ZM107.339 640.997C101.628 640.997 96.999 636.52 96.999 630.997C96.999 625.474 101.628 620.997 107.339 620.997C113.049 620.997 117.678 625.474 117.678 630.997C123.389 630.997 128.018 635.474 128.018 640.997C128.018 646.52 123.389 650.997 117.678 650.997C111.968 650.997 107.339 646.52 107.339 640.997ZM115.61 630.997C115.61 626.579 111.907 622.997 107.339 622.997C102.771 622.997 99.0669 626.579 99.0669 630.997C99.0669 635.415 102.771 638.997 107.339 638.997C111.907 638.997 115.61 635.415 115.61 630.997ZM156.968 590.997C156.968 586.579 153.265 582.997 148.697 582.997C144.129 582.997 140.425 586.579 140.425 590.997C140.425 595.415 144.129 598.997 148.697 598.997C153.265 598.997 156.968 595.415 156.968 590.997Z" fill="black"/>
<path fill-rule="evenodd" clip-rule="evenodd" d="M148.697 518.997C142.986 518.997 138.357 514.52 138.357 508.997C138.357 503.474 142.986 498.997 148.697 498.997C154.407 498.997 159.036 503.474 159.036 508.997C164.747 508.997 169.376 513.474 169.376 518.997C169.376 524.52 164.747 528.997 159.036 528.997C153.326 528.997 148.697 524.52 148.697 518.997ZM107.339 558.997C101.628 558.997 96.999 554.52 96.999 548.997C96.999 543.474 101.628 538.997 107.339 538.997C113.049 538.997 117.678 543.474 117.678 548.997C123.389 548.997 128.018 553.474 128.018 558.997C128.018 564.52 123.389 568.997 117.678 568.997C111.968 568.997 107.339 564.52 107.339 558.997ZM115.61 548.997C115.61 544.579 111.907 540.997 107.339 540.997C102.771 540.997 99.0669 544.579 99.0669 548.997C99.0669 553.415 102.771 556.997 107.339 556.997C111.907 556.997 115.61 553.415 115.61 548.997ZM156.968 508.997C156.968 504.579 153.265 500.997 148.697 500.997C144.129 500.997 140.425 504.579 140.425 508.997C140.425 513.415 144.129 516.997 148.697 516.997C153.265 516.997 156.968 513.415 156.968 508.997Z" fill="black"/>
<path fill-rule="evenodd" clip-rule="evenodd" d="M148.697 436.997C142.986 436.997 138.357 432.52 138.357 426.997C138.357 421.474 142.986 416.997 148.697 416.997C154.407 416.997 159.036 421.474 159.036 426.997C164.747 426.997 169.376 431.474 169.376 436.997C169.376 442.52 164.747 446.997 159.036 446.997C153.326 446.997 148.697 442.52 148.697 436.997ZM107.339 476.997C101.628 476.997 96.999 472.52 96.999 466.997C96.999 461.474 101.628 456.997 107.339 456.997C113.049 456.997 117.678 461.474 117.678 466.997C123.389 466.997 128.018 471.474 128.018 476.997C128.018 482.52 123.389 486.997 117.678 486.997C111.968 486.997 107.339 482.52 107.339 476.997ZM115.61 466.997C115.61 462.579 111.907 458.997 107.339 458.997C102.771 458.997 99.0669 462.579 99.0669 466.997C99.0669 471.415 102.771 474.997 107.339 474.997C111.907 474.997 115.61 471.415 115.61 466.997ZM156.968 426.997C156.968 422.579 153.265 418.997 148.697 418.997C144.129 418.997 140.425 422.579 140.425 426.997C140.425 431.415 144.129 434.997 148.697 434.997C153.265 434.997 156.968 431.415 156.968 426.997Z" fill="black"/>
<path fill-rule="evenodd" clip-rule="evenodd" d="M148.697 354.997C142.986 354.997 138.357 350.52 138.357 344.997C138.357 339.474 142.986 334.997 148.697 334.997C154.407 334.997 159.036 339.474 159.036 344.997C164.747 344.997 169.376 349.474 169.376 354.997C169.376 360.52 164.747 364.997 159.036 364.997C153.326 364.997 148.697 360.52 148.697 354.997ZM107.339 394.997C101.628 394.997 96.999 390.52 96.999 384.997C96.999 379.474 101.628 374.997 107.339 374.997C113.049 374.997 117.678 379.474 117.678 384.997C123.389 384.997 128.018 389.474 128.018 394.997C128.018 400.52 123.389 404.997 117.678 404.997C111.968 404.997 107.339 400.52 107.339 394.997ZM115.61 384.997C115.61 380.579 111.907 376.997 107.339 376.997C102.771 376.997 99.0669 380.579 99.0669 384.997C99.0669 389.415 102.771 392.997 107.339 392.997C111.907 392.997 115.61 389.415 115.61 384.997ZM156.968 344.997C156.968 340.579 153.265 336.997 148.697 336.997C144.129 336.997 140.425 340.579 140.425 344.997C140.425 349.415 144.129 352.997 148.697 352.997C153.265 352.997 156.968 349.415 156.968 344.997Z" fill="black"/>
<path fill-rule="evenodd" clip-rule="evenodd" d="M233.481 764.997C227.77 764.997 223.141 760.52 223.141 754.997C223.141 749.474 227.77 744.997 233.481 744.997C239.191 744.997 243.82 749.474 243.82 754.997C249.531 754.997 254.16 759.474 254.16 764.997C254.16 770.52 249.531 774.997 243.82 774.997C238.11 774.997 233.481 770.52 233.481 764.997ZM192.123 804.997C186.412 804.997 181.783 800.52 181.783 794.997C181.783 789.474 186.412 784.997 192.123 784.997C197.833 784.997 202.462 789.474 202.462 794.997C208.173 794.997 212.802 799.474 212.802 804.997C212.802 810.52 208.173 814.997 202.462 814.997C196.752 814.997 192.123 810.52 192.123 804.997ZM200.394 794.997C200.394 790.579 196.691 786.997 192.123 786.997C187.555 786.997 183.851 790.579 183.851 794.997C183.851 799.415 187.555 802.997 192.123 802.997C196.691 802.997 200.394 799.415 200.394 794.997ZM241.752 754.997C241.752 750.579 238.049 746.997 233.481 746.997C228.913 746.997 225.209 750.579 225.209 754.997C225.209 759.415 228.913 762.997 233.481 762.997C238.049 762.997 241.752 759.415 241.752 754.997Z" fill="black"/>
<path fill-rule="evenodd" clip-rule="evenodd" d="M233.481 682.997C227.77 682.997 223.141 678.52 223.141 672.997C223.141 667.474 227.77 662.997 233.481 662.997C239.191 662.997 243.82 667.474 243.82 672.997C249.531 672.997 254.16 677.474 254.16 682.997C254.16 688.52 249.531 692.997 243.82 692.997C238.11 692.997 233.481 688.52 233.481 682.997ZM192.123 722.997C186.412 722.997 181.783 718.52 181.783 712.997C181.783 707.474 186.412 702.997 192.123 702.997C197.833 702.997 202.462 707.474 202.462 712.997C208.173 712.997 212.802 717.474 212.802 722.997C212.802 728.52 208.173 732.997 202.462 732.997C196.752 732.997 192.123 728.52 192.123 722.997ZM200.394 712.997C200.394 708.579 196.691 704.997 192.123 704.997C187.555 704.997 183.851 708.579 183.851 712.997C183.851 717.415 187.555 720.997 192.123 720.997C196.691 720.997 200.394 717.415 200.394 712.997ZM241.752 672.997C241.752 668.579 238.049 664.997 233.481 664.997C228.913 664.997 225.209 668.579 225.209 672.997C225.209 677.415 228.913 680.997 233.481 680.997C238.049 680.997 241.752 677.415 241.752 672.997Z" fill="black"/>
<path fill-rule="evenodd" clip-rule="evenodd" d="M233.481 600.997C227.77 600.997 223.141 596.52 223.141 590.997C223.141 585.474 227.77 580.997 233.481 580.997C239.191 580.997 243.82 585.474 243.82 590.997C249.531 590.997 254.16 595.474 254.16 600.997C254.16 606.52 249.531 610.997 243.82 610.997C238.11 610.997 233.481 606.52 233.481 600.997ZM192.123 640.997C186.412 640.997 181.783 636.52 181.783 630.997C181.783 625.474 186.412 620.997 192.123 620.997C197.833 620.997 202.462 625.474 202.462 630.997C208.173 630.997 212.802 635.474 212.802 640.997C212.802 646.52 208.173 650.997 202.462 650.997C196.752 650.997 192.123 646.52 192.123 640.997ZM200.394 630.997C200.394 626.579 196.691 622.997 192.123 622.997C187.555 622.997 183.851 626.579 183.851 630.997C183.851 635.415 187.555 638.997 192.123 638.997C196.691 638.997 200.394 635.415 200.394 630.997ZM241.752 590.997C241.752 586.579 238.049 582.997 233.481 582.997C228.913 582.997 225.209 586.579 225.209 590.997C225.209 595.415 228.913 598.997 233.481 598.997C238.049 598.997 241.752 595.415 241.752 590.997Z" fill="black"/>
<path fill-rule="evenodd" clip-rule="evenodd" d="M233.481 518.997C227.77 518.997 223.141 514.52 223.141 508.997C223.141 503.474 227.77 498.997 233.481 498.997C239.191 498.997 243.82 503.474 243.82 508.997C249.531 508.997 254.16 513.474 254.16 518.997C254.16 524.52 249.531 528.997 243.82 528.997C238.11 528.997 233.481 524.52 233.481 518.997ZM192.123 558.997C186.412 558.997 181.783 554.52 181.783 548.997C181.783 543.474 186.412 538.997 192.123 538.997C197.833 538.997 202.462 543.474 202.462 548.997C208.173 548.997 212.802 553.474 212.802 558.997C212.802 564.52 208.173 568.997 202.462 568.997C196.752 568.997 192.123 564.52 192.123 558.997ZM200.394 548.997C200.394 544.579 196.691 540.997 192.123 540.997C187.555 540.997 183.851 544.579 183.851 548.997C183.851 553.415 187.555 556.997 192.123 556.997C196.691 556.997 200.394 553.415 200.394 548.997ZM241.752 508.997C241.752 504.579 238.049 500.997 233.481 500.997C228.913 500.997 225.209 504.579 225.209 508.997C225.209 513.415 228.913 516.997 233.481 516.997C238.049 516.997 241.752 513.415 241.752 508.997Z" fill="black"/>
<path fill-rule="evenodd" clip-rule="evenodd" d="M233.481 436.997C227.77 436.997 223.141 432.52 223.141 426.997C223.141 421.474 227.77 416.997 233.481 416.997C239.191 416.997 243.82 421.474 243.82 426.997C249.531 426.997 254.16 431.474 254.16 436.997C254.16 442.52 249.531 446.997 243.82 446.997C238.11 446.997 233.481 442.52 233.481 436.997ZM192.123 476.997C186.412 476.997 181.783 472.52 181.783 466.997C181.783 461.474 186.412 456.997 192.123 456.997C197.833 456.997 202.462 461.474 202.462 466.997C208.173 466.997 212.802 471.474 212.802 476.997C212.802 482.52 208.173 486.997 202.462 486.997C196.752 486.997 192.123 482.52 192.123 476.997ZM200.394 466.997C200.394 462.579 196.691 458.997 192.123 458.997C187.555 458.997 183.851 462.579 183.851 466.997C183.851 471.415 187.555 474.997 192.123 474.997C196.691 474.997 200.394 471.415 200.394 466.997ZM241.752 426.997C241.752 422.579 238.049 418.997 233.481 418.997C228.913 418.997 225.209 422.579 225.209 426.997C225.209 431.415 228.913 434.997 233.481 434.997C238.049 434.997 241.752 431.415 241.752 426.997Z" fill="black"/>
<path fill-rule="evenodd" clip-rule="evenodd" d="M233.481 354.997C227.77 354.997 223.141 350.52 223.141 344.997C223.141 339.474 227.77 334.997 233.481 334.997C239.191 334.997 243.82 339.474 243.82 344.997C249.531 344.997 254.16 349.474 254.16 354.997C254.16 360.52 249.531 364.997 243.82 364.997C238.11 364.997 233.481 360.52 233.481 354.997ZM192.123 394.997C186.412 394.997 181.783 390.52 181.783 384.997C181.783 379.474 186.412 374.997 192.123 374.997C197.833 374.997 202.462 379.474 202.462 384.997C208.173 384.997 212.802 389.474 212.802 394.997C212.802 400.52 208.173 404.997 202.462 404.997C196.752 404.997 192.123 400.52 192.123 394.997ZM200.394 384.997C200.394 380.579 196.691 376.997 192.123 376.997C187.555 376.997 183.851 380.579 183.851 384.997C183.851 389.415 187.555 392.997 192.123 392.997C196.691 392.997 200.394 389.415 200.394 384.997ZM241.752 344.997C241.752 340.579 238.049 336.997 233.481 336.997C228.913 336.997 225.209 340.579 225.209 344.997C225.209 349.415 228.913 352.997 233.481 352.997C238.049 352.997 241.752 349.415 241.752 344.997Z" fill="black"/>
<path fill-rule="evenodd" clip-rule="evenodd" d="M318.264 764.997C312.554 764.997 307.925 760.52 307.925 754.997C307.925 749.474 312.554 744.997 318.264 744.997C323.975 744.997 328.604 749.474 328.604 754.997C334.314 754.997 338.943 759.474 338.943 764.997C338.943 770.52 334.314 774.997 328.604 774.997C322.893 774.997 318.264 770.52 318.264 764.997ZM276.906 804.997C271.196 804.997 266.567 800.52 266.567 794.997C266.567 789.474 271.196 784.997 276.906 784.997C282.617 784.997 287.246 789.474 287.246 794.997C292.956 794.997 297.585 799.474 297.585 804.997C297.585 810.52 292.956 814.997 287.246 814.997C281.535 814.997 276.906 810.52 276.906 804.997ZM285.178 794.997C285.178 790.579 281.474 786.997 276.906 786.997C272.338 786.997 268.635 790.579 268.635 794.997C268.635 799.415 272.338 802.997 276.906 802.997C281.474 802.997 285.178 799.415 285.178 794.997ZM326.536 754.997C326.536 750.579 322.832 746.997 318.264 746.997C313.696 746.997 309.993 750.579 309.993 754.997C309.993 759.415 313.696 762.997 318.264 762.997C322.832 762.997 326.536 759.415 326.536 754.997Z" fill="black"/>
<path fill-rule="evenodd" clip-rule="evenodd" d="M318.264 682.997C312.554 682.997 307.925 678.52 307.925 672.997C307.925 667.474 312.554 662.997 318.264 662.997C323.975 662.997 328.604 667.474 328.604 672.997C334.314 672.997 338.943 677.474 338.943 682.997C338.943 688.52 334.314 692.997 328.604 692.997C322.893 692.997 318.264 688.52 318.264 682.997ZM276.906 722.997C271.196 722.997 266.567 718.52 266.567 712.997C266.567 707.474 271.196 702.997 276.906 702.997C282.617 702.997 287.246 707.474 287.246 712.997C292.956 712.997 297.585 717.474 297.585 722.997C297.585 728.52 292.956 732.997 287.246 732.997C281.535 732.997 276.906 728.52 276.906 722.997ZM285.178 712.997C285.178 708.579 281.474 704.997 276.906 704.997C272.338 704.997 268.635 708.579 268.635 712.997C268.635 717.415 272.338 720.997 276.906 720.997C281.474 720.997 285.178 717.415 285.178 712.997ZM326.536 672.997C326.536 668.579 322.832 664.997 318.264 664.997C313.696 664.997 309.993 668.579 309.993 672.997C309.993 677.415 313.696 680.997 318.264 680.997C322.832 680.997 326.536 677.415 326.536 672.997Z" fill="black"/>
<path fill-rule="evenodd" clip-rule="evenodd" d="M318.264 600.997C312.554 600.997 307.925 596.52 307.925 590.997C307.925 585.474 312.554 580.997 318.264 580.997C323.975 580.997 328.604 585.474 328.604 590.997C334.314 590.997 338.943 595.474 338.943 600.997C338.943 606.52 334.314 610.997 328.604 610.997C322.893 610.997 318.264 606.52 318.264 600.997ZM276.906 640.997C271.196 640.997 266.567 636.52 266.567 630.997C266.567 625.474 271.196 620.997 276.906 620.997C282.617 620.997 287.246 625.474 287.246 630.997C292.956 630.997 297.585 635.474 297.585 640.997C297.585 646.52 292.956 650.997 287.246 650.997C281.535 650.997 276.906 646.52 276.906 640.997ZM285.178 630.997C285.178 626.579 281.474 622.997 276.906 622.997C272.338 622.997 268.635 626.579 268.635 630.997C268.635 635.415 272.338 638.997 276.906 638.997C281.474 638.997 285.178 635.415 285.178 630.997ZM326.536 590.997C326.536 586.579 322.832 582.997 318.264 582.997C313.696 582.997 309.993 586.579 309.993 590.997C309.993 595.415 313.696 598.997 318.264 598.997C322.832 598.997 326.536 595.415 326.536 590.997Z" fill="black"/>
<path fill-rule="evenodd" clip-rule="evenodd" d="M318.264 518.997C312.554 518.997 307.925 514.52 307.925 508.997C307.925 503.474 312.554 498.997 318.264 498.997C323.975 498.997 328.604 503.474 328.604 508.997C334.314 508.997 338.943 513.474 338.943 518.997C338.943 524.52 334.314 528.997 328.604 528.997C322.893 528.997 318.264 524.52 318.264 518.997ZM276.906 558.997C271.196 558.997 266.567 554.52 266.567 548.997C266.567 543.474 271.196 538.997 276.906 538.997C282.617 538.997 287.246 543.474 287.246 548.997C292.956 548.997 297.585 553.474 297.585 558.997C297.585 564.52 292.956 568.997 287.246 568.997C281.535 568.997 276.906 564.52 276.906 558.997ZM285.178 548.997C285.178 544.579 281.474 540.997 276.906 540.997C272.338 540.997 268.635 544.579 268.635 548.997C268.635 553.415 272.338 556.997 276.906 556.997C281.474 556.997 285.178 553.415 285.178 548.997ZM326.536 508.997C326.536 504.579 322.832 500.997 318.264 500.997C313.696 500.997 309.993 504.579 309.993 508.997C309.993 513.415 313.696 516.997 318.264 516.997C322.832 516.997 326.536 513.415 326.536 508.997Z" fill="black"/>
<path fill-rule="evenodd" clip-rule="evenodd" d="M318.264 436.997C312.554 436.997 307.925 432.52 307.925 426.997C307.925 421.474 312.554 416.997 318.264 416.997C323.975 416.997 328.604 421.474 328.604 426.997C334.314 426.997 338.943 431.474 338.943 436.997C338.943 442.52 334.314 446.997 328.604 446.997C322.893 446.997 318.264 442.52 318.264 436.997ZM276.906 476.997C271.196 476.997 266.567 472.52 266.567 466.997C266.567 461.474 271.196 456.997 276.906 456.997C282.617 456.997 287.246 461.474 287.246 466.997C292.956 466.997 297.585 471.474 297.585 476.997C297.585 482.52 292.956 486.997 287.246 486.997C281.535 486.997 276.906 482.52 276.906 476.997ZM285.178 466.997C285.178 462.579 281.474 458.997 276.906 458.997C272.338 458.997 268.635 462.579 268.635 466.997C268.635 471.415 272.338 474.997 276.906 474.997C281.474 474.997 285.178 471.415 285.178 466.997ZM326.536 426.997C326.536 422.579 322.832 418.997 318.264 418.997C313.696 418.997 309.993 422.579 309.993 426.997C309.993 431.415 313.696 434.997 318.264 434.997C322.832 434.997 326.536 431.415 326.536 426.997Z" fill="black"/>
<path fill-rule="evenodd" clip-rule="evenodd" d="M318.264 354.997C312.554 354.997 307.925 350.52 307.925 344.997C307.925 339.474 312.554 334.997 318.264 334.997C323.975 334.997 328.604 339.474 328.604 344.997C334.314 344.997 338.943 349.474 338.943 354.997C338.943 360.52 334.314 364.997 328.604 364.997C322.893 364.997 318.264 360.52 318.264 354.997ZM276.906 394.997C271.196 394.997 266.567 390.52 266.567 384.997C266.567 379.474 271.196 374.997 276.906 374.997C282.617 374.997 287.246 379.474 287.246 384.997C292.956 384.997 297.585 389.474 297.585 394.997C297.585 400.52 292.956 404.997 287.246 404.997C281.535 404.997 276.906 400.52 276.906 394.997ZM285.178 384.997C285.178 380.579 281.474 376.997 276.906 376.997C272.338 376.997 268.635 380.579 268.635 384.997C268.635 389.415 272.338 392.997 276.906 392.997C281.474 392.997 285.178 389.415 285.178 384.997ZM326.536 344.997C326.536 340.579 322.832 336.997 318.264 336.997C313.696 336.997 309.993 340.579 309.993 344.997C309.993 349.415 313.696 352.997 318.264 352.997C322.832 352.997 326.536 349.415 326.536 344.997Z" fill="black"/>
<path fill-rule="evenodd" clip-rule="evenodd" d="M403.049 764.997C397.338 764.997 392.709 760.52 392.709 754.997C392.709 749.474 397.338 744.997 403.049 744.997C408.759 744.997 413.388 749.474 413.388 754.997C419.099 754.997 423.728 759.474 423.728 764.997C423.728 770.52 419.099 774.997 413.388 774.997C407.678 774.997 403.049 770.52 403.049 764.997ZM361.691 804.997C355.98 804.997 351.351 800.52 351.351 794.997C351.351 789.474 355.98 784.997 361.691 784.997C367.401 784.997 372.03 789.474 372.03 794.997C377.741 794.997 382.37 799.474 382.37 804.997C382.37 810.52 377.741 814.997 372.03 814.997C366.32 814.997 361.691 810.52 361.691 804.997ZM369.962 794.997C369.962 790.579 366.259 786.997 361.691 786.997C357.123 786.997 353.419 790.579 353.419 794.997C353.419 799.415 357.123 802.997 361.691 802.997C366.259 802.997 369.962 799.415 369.962 794.997ZM411.32 754.997C411.32 750.579 407.617 746.997 403.049 746.997C398.481 746.997 394.777 750.579 394.777 754.997C394.777 759.415 398.481 762.997 403.049 762.997C407.617 762.997 411.32 759.415 411.32 754.997Z" fill="black"/>
<path fill-rule="evenodd" clip-rule="evenodd" d="M403.049 682.997C397.338 682.997 392.709 678.52 392.709 672.997C392.709 667.474 397.338 662.997 403.049 662.997C408.759 662.997 413.388 667.474 413.388 672.997C419.099 672.997 423.728 677.474 423.728 682.997C423.728 688.52 419.099 692.997 413.388 692.997C407.678 692.997 403.049 688.52 403.049 682.997ZM361.691 722.997C355.98 722.997 351.351 718.52 351.351 712.997C351.351 707.474 355.98 702.997 361.691 702.997C367.401 702.997 372.03 707.474 372.03 712.997C377.741 712.997 382.37 717.474 382.37 722.997C382.37 728.52 377.741 732.997 372.03 732.997C366.32 732.997 361.691 728.52 361.691 722.997ZM369.962 712.997C369.962 708.579 366.259 704.997 361.691 704.997C357.123 704.997 353.419 708.579 353.419 712.997C353.419 717.415 357.123 720.997 361.691 720.997C366.259 720.997 369.962 717.415 369.962 712.997ZM411.32 672.997C411.32 668.579 407.617 664.997 403.049 664.997C398.481 664.997 394.777 668.579 394.777 672.997C394.777 677.415 398.481 680.997 403.049 680.997C407.617 680.997 411.32 677.415 411.32 672.997Z" fill="black"/>
<path fill-rule="evenodd" clip-rule="evenodd" d="M403.049 600.997C397.338 600.997 392.709 596.52 392.709 590.997C392.709 585.474 397.338 580.997 403.049 580.997C408.759 580.997 413.388 585.474 413.388 590.997C419.099 590.997 423.728 595.474 423.728 600.997C423.728 606.52 419.099 610.997 413.388 610.997C407.678 610.997 403.049 606.52 403.049 600.997ZM361.691 640.997C355.98 640.997 351.351 636.52 351.351 630.997C351.351 625.474 355.98 620.997 361.691 620.997C367.401 620.997 372.03 625.474 372.03 630.997C377.741 630.997 382.37 635.474 382.37 640.997C382.37 646.52 377.741 650.997 372.03 650.997C366.32 650.997 361.691 646.52 361.691 640.997ZM369.962 630.997C369.962 626.579 366.259 622.997 361.691 622.997C357.123 622.997 353.419 626.579 353.419 630.997C353.419 635.415 357.123 638.997 361.691 638.997C366.259 638.997 369.962 635.415 369.962 630.997ZM411.32 590.997C411.32 586.579 407.617 582.997 403.049 582.997C398.481 582.997 394.777 586.579 394.777 590.997C394.777 595.415 398.481 598.997 403.049 598.997C407.617 598.997 411.32 595.415 411.32 590.997Z" fill="black"/>
<path fill-rule="evenodd" clip-rule="evenodd" d="M403.049 518.997C397.338 518.997 392.709 514.52 392.709 508.997C392.709 503.474 397.338 498.997 403.049 498.997C408.759 498.997 413.388 503.474 413.388 508.997C419.099 508.997 423.728 513.474 423.728 518.997C423.728 524.52 419.099 528.997 413.388 528.997C407.678 528.997 403.049 524.52 403.049 518.997ZM361.691 558.997C355.98 558.997 351.351 554.52 351.351 548.997C351.351 543.474 355.98 538.997 361.691 538.997C367.401 538.997 372.03 543.474 372.03 548.997C377.741 548.997 382.37 553.474 382.37 558.997C382.37 564.52 377.741 568.997 372.03 568.997C366.32 568.997 361.691 564.52 361.691 558.997ZM369.962 548.997C369.962 544.579 366.259 540.997 361.691 540.997C357.123 540.997 353.419 544.579 353.419 548.997C353.419 553.415 357.123 556.997 361.691 556.997C366.259 556.997 369.962 553.415 369.962 548.997ZM411.32 508.997C411.32 504.579 407.617 500.997 403.049 500.997C398.481 500.997 394.777 504.579 394.777 508.997C394.777 513.415 398.481 516.997 403.049 516.997C407.617 516.997 411.32 513.415 411.32 508.997Z" fill="black"/>
<path fill-rule="evenodd" clip-rule="evenodd" d="M403.049 436.997C397.338 436.997 392.709 432.52 392.709 426.997C392.709 421.474 397.338 416.997 403.049 416.997C408.759 416.997 413.388 421.474 413.388 426.997C419.099 426.997 423.728 431.474 423.728 436.997C423.728 442.52 419.099 446.997 413.388 446.997C407.678 446.997 403.049 442.52 403.049 436.997ZM361.691 476.997C355.98 476.997 351.351 472.52 351.351 466.997C351.351 461.474 355.98 456.997 361.691 456.997C367.401 456.997 372.03 461.474 372.03 466.997C377.741 466.997 382.37 471.474 382.37 476.997C382.37 482.52 377.741 486.997 372.03 486.997C366.32 486.997 361.691 482.52 361.691 476.997ZM369.962 466.997C369.962 462.579 366.259 458.997 361.691 458.997C357.123 458.997 353.419 462.579 353.419 466.997C353.419 471.415 357.123 474.997 361.691 474.997C366.259 474.997 369.962 471.415 369.962 466.997ZM411.32 426.997C411.32 422.579 407.617 418.997 403.049 418.997C398.481 418.997 394.777 422.579 394.777 426.997C394.777 431.415 398.481 434.997 403.049 434.997C407.617 434.997 411.32 431.415 411.32 426.997Z" fill="black"/>
<path fill-rule="evenodd" clip-rule="evenodd" d="M403.049 354.997C397.338 354.997 392.709 350.52 392.709 344.997C392.709 339.474 397.338 334.997 403.049 334.997C408.759 334.997 413.388 339.474 413.388 344.997C419.099 344.997 423.728 349.474 423.728 354.997C423.728 360.52 419.099 364.997 413.388 364.997C407.678 364.997 403.049 360.52 403.049 354.997ZM361.691 394.997C355.98 394.997 351.351 390.52 351.351 384.997C351.351 379.474 355.98 374.997 361.691 374.997C367.401 374.997 372.03 379.474 372.03 384.997C377.741 384.997 382.37 389.474 382.37 394.997C382.37 400.52 377.741 404.997 372.03 404.997C366.32 404.997 361.691 400.52 361.691 394.997ZM369.962 384.997C369.962 380.579 366.259 376.997 361.691 376.997C357.123 376.997 353.419 380.579 353.419 384.997C353.419 389.415 357.123 392.997 361.691 392.997C366.259 392.997 369.962 389.415 369.962 384.997ZM411.32 344.997C411.32 340.579 407.617 336.997 403.049 336.997C398.481 336.997 394.777 340.579 394.777 344.997C394.777 349.415 398.481 352.997 403.049 352.997C407.617 352.997 411.32 349.415 411.32 344.997Z" fill="black"/>
<path fill-rule="evenodd" clip-rule="evenodd" d="M148.697 272.997C142.986 272.997 138.357 268.52 138.357 262.997C138.357 257.474 142.986 252.997 148.697 252.997C154.407 252.997 159.036 257.474 159.036 262.997C164.747 262.997 169.376 267.474 169.376 272.997C169.376 278.52 164.747 282.997 159.036 282.997C153.326 282.997 148.697 278.52 148.697 272.997ZM107.339 312.997C101.628 312.997 96.999 308.52 96.999 302.997C96.999 297.474 101.628 292.997 107.339 292.997C113.049 292.997 117.678 297.474 117.678 302.997C123.389 302.997 128.018 307.474 128.018 312.997C128.018 318.52 123.389 322.997 117.678 322.997C111.968 322.997 107.339 318.52 107.339 312.997ZM115.61 302.997C115.61 298.579 111.907 294.997 107.339 294.997C102.771 294.997 99.0669 298.579 99.0669 302.997C99.0669 307.415 102.771 310.997 107.339 310.997C111.907 310.997 115.61 307.415 115.61 302.997ZM156.968 262.997C156.968 258.579 153.265 254.997 148.697 254.997C144.129 254.997 140.425 258.579 140.425 262.997C140.425 267.415 144.129 270.997 148.697 270.997C153.265 270.997 156.968 267.415 156.968 262.997Z" fill="black"/>
<path fill-rule="evenodd" clip-rule="evenodd" d="M233.481 272.997C227.77 272.997 223.141 268.52 223.141 262.997C223.141 257.474 227.77 252.997 233.481 252.997C239.191 252.997 243.82 257.474 243.82 262.997C249.531 262.997 254.16 267.474 254.16 272.997C254.16 278.52 249.531 282.997 243.82 282.997C238.11 282.997 233.481 278.52 233.481 272.997ZM192.123 312.997C186.412 312.997 181.783 308.52 181.783 302.997C181.783 297.474 186.412 292.997 192.123 292.997C197.833 292.997 202.462 297.474 202.462 302.997C208.173 302.997 212.802 307.474 212.802 312.997C212.802 318.52 208.173 322.997 202.462 322.997C196.752 322.997 192.123 318.52 192.123 312.997ZM200.394 302.997C200.394 298.579 196.691 294.997 192.123 294.997C187.555 294.997 183.851 298.579 183.851 302.997C183.851 307.415 187.555 310.997 192.123 310.997C196.691 310.997 200.394 307.415 200.394 302.997ZM241.752 262.997C241.752 258.579 238.049 254.997 233.481 254.997C228.913 254.997 225.209 258.579 225.209 262.997C225.209 267.415 228.913 270.997 233.481 270.997C238.049 270.997 241.752 267.415 241.752 262.997Z" fill="black"/>
<path fill-rule="evenodd" clip-rule="evenodd" d="M318.264 272.997C312.554 272.997 307.925 268.52 307.925 262.997C307.925 257.474 312.554 252.997 318.264 252.997C323.975 252.997 328.604 257.474 328.604 262.997C334.314 262.997 338.943 267.474 338.943 272.997C338.943 278.52 334.314 282.997 328.604 282.997C322.893 282.997 318.264 278.52 318.264 272.997ZM276.906 312.997C271.196 312.997 266.567 308.52 266.567 302.997C266.567 297.474 271.196 292.997 276.906 292.997C282.617 292.997 287.246 297.474 287.246 302.997C292.956 302.997 297.585 307.474 297.585 312.997C297.585 318.52 292.956 322.997 287.246 322.997C281.535 322.997 276.906 318.52 276.906 312.997ZM285.178 302.997C285.178 298.579 281.474 294.997 276.906 294.997C272.338 294.997 268.635 298.579 268.635 302.997C268.635 307.415 272.338 310.997 276.906 310.997C281.474 310.997 285.178 307.415 285.178 302.997ZM326.536 262.997C326.536 258.579 322.832 254.997 318.264 254.997C313.696 254.997 309.993 258.579 309.993 262.997C309.993 267.415 313.696 270.997 318.264 270.997C322.832 270.997 326.536 267.415 326.536 262.997Z" fill="black"/>
<path fill-rule="evenodd" clip-rule="evenodd" d="M403.049 272.997C397.338 272.997 392.709 268.52 392.709 262.997C392.709 257.474 397.338 252.997 403.049 252.997C408.759 252.997 413.388 257.474 413.388 262.997C419.099 262.997 423.728 267.474 423.728 272.997C423.728 278.52 419.099 282.997 413.388 282.997C407.678 282.997 403.049 278.52 403.049 272.997ZM361.691 312.997C355.98 312.997 351.351 308.52 351.351 302.997C351.351 297.474 355.98 292.997 361.691 292.997C367.401 292.997 372.03 297.474 372.03 302.997C377.741 302.997 382.37 307.474 382.37 312.997C382.37 318.52 377.741 322.997 372.03 322.997C366.32 322.997 361.691 318.52 361.691 312.997ZM369.962 302.997C369.962 298.579 366.259 294.997 361.691 294.997C357.123 294.997 353.419 298.579 353.419 302.997C353.419 307.415 357.123 310.997 361.691 310.997C366.259 310.997 369.962 307.415 369.962 302.997ZM411.32 262.997C411.32 258.579 407.617 254.997 403.049 254.997C398.481 254.997 394.777 258.579 394.777 262.997C394.777 267.415 398.481 270.997 403.049 270.997C407.617 270.997 411.32 267.415 411.32 262.997Z" fill="black"/>
</g>
<g filter="url(#filter0_iiii)">
<path d="M632.786 158.51C665.063 197.46 605.331 279.538 625.748 328.652C652.461 392.913 747.98 394.397 760.626 466.04C773.461 538.755 734.525 623.369 689.293 688.658C640.371 759.273 573.912 822.163 500.361 841.713C427.674 861.033 356.418 833.922 300.166 792.086C250.322 755.015 239.153 680.508 207.004 623.532C175.923 568.45 114.135 532.701 114.324 462.729C114.514 392.638 158.719 320.751 207.966 268.708C251.522 222.678 311.337 217.018 365.89 196.876C407.573 181.485 447.577 170.707 489.833 164.633C538.805 157.594 601.996 121.354 632.786 158.51Z" fill="#484C9A"/>
</g>
<defs>
<filter id="filter0_iiii" x="0.336914" y="0.98584" width="893.36" height="948.078" filterUnits="userSpaceOnUse" color-interpolation-filters="sRGB">
<feFlood flood-opacity="0" result="BackgroundImageFix"/>
<feBlend mode="normal" in="SourceGraphic" in2="BackgroundImageFix" result="shape"/>
<feColorMatrix in="SourceAlpha" type="matrix" values="0 0 0 0 0 0 0 0 0 0 0 0 0 0 0 0 0 0 127 0" result="hardAlpha"/>
<feOffset dy="16"/>
<feGaussianBlur stdDeviation="16"/>
<feComposite in2="hardAlpha" operator="arithmetic" k2="-1" k3="1"/>
<feColorMatrix type="matrix" values="0 0 0 0 0 0 0 0 0 0 0 0 0 0 0 0 0 0 0.16 0"/>
<feBlend mode="normal" in2="shape" result="effect1_innerShadow"/>
<feColorMatrix in="SourceAlpha" type="matrix" values="0 0 0 0 0 0 0 0 0 0 0 0 0 0 0 0 0 0 127 0" result="hardAlpha"/>
<feOffset dy="8"/>
<feGaussianBlur stdDeviation="8"/>
<feComposite in2="hardAlpha" operator="arithmetic" k2="-1" k3="1"/>
<feColorMatrix type="matrix" values="0 0 0 0 0 0 0 0 0 0 0 0 0 0 0 0 0 0 0.12 0"/>
<feBlend mode="normal" in2="effect1_innerShadow" result="effect2_innerShadow"/>
<feColorMatrix in="SourceAlpha" type="matrix" values="0 0 0 0 0 0 0 0 0 0 0 0 0 0 0 0 0 0 127 0" result="hardAlpha"/>
<feOffset dy="4"/>
<feGaussianBlur stdDeviation="4"/>
<feComposite in2="hardAlpha" operator="arithmetic" k2="-1" k3="1"/>
<feColorMatrix type="matrix" values="0 0 0 0 0 0 0 0 0 0 0 0 0 0 0 0 0 0 0.12 0"/>
<feBlend mode="normal" in2="effect2_innerShadow" result="effect3_innerShadow"/>
<feColorMatrix in="SourceAlpha" type="matrix" values="0 0 0 0 0 0 0 0 0 0 0 0 0 0 0 0 0 0 127 0" result="hardAlpha"/>
<feOffset dy="2"/>
<feGaussianBlur stdDeviation="2"/>
<feComposite in2="hardAlpha" operator="arithmetic" k2="-1" k3="1"/>
<feColorMatrix type="matrix" values="0 0 0 0 0 0 0 0 0 0 0 0 0 0 0 0 0 0 0.12 0"/>
<feBlend mode="normal" in2="effect3_innerShadow" result="effect4_innerShadow"/>
</filter>
<clipPath id="clip0">
<rect width="566" height="335" fill="white" transform="translate(96.999 814.997) rotate(-90)"/>
</clipPath>
</defs>
</svg>
