<svg width="64" height="63" viewBox="0 0 64 63" fill="none" xmlns="http://www.w3.org/2000/svg">
<path d="M58.5565 5.25H4.78923C3.68942 5.25 2.79785 6.14543 2.79785 7.25V45.25C2.79785 46.3546 3.68942 47.25 4.78923 47.25H58.5565C59.6563 47.25 60.5479 46.3546 60.5479 45.25V7.25C60.5479 6.14543 59.6563 5.25 58.5565 5.25Z" fill="#5D62B5"/>
<path d="M27.7354 24.2812L21.8291 30.1875C21.6531 30.1001 21.4825 30.0054 21.3172 29.9033C20.3387 29.3093 19.5177 28.4882 18.924 27.5095C18.3302 26.5309 17.9812 25.4235 17.9064 24.2812C17.8965 24.1274 17.8916 23.9724 17.8916 23.8161V21.3281H23.7979L27.7354 24.2812Z" fill="#F3AF3E"/>
<path d="M25.7665 27.2344L23.3055 28.7109L21.3171 29.9033C20.3386 29.3093 19.5176 28.4882 18.9239 27.5095C18.3301 26.5309 17.9811 25.4235 17.9062 24.2812H22.9032L25.2817 26.7348L25.7665 27.2344Z" fill="#5B3726"/>
<path d="M45.4541 21.3281V23.8161C45.4541 23.9724 45.4492 24.1274 45.4393 24.2812C45.3576 25.5224 44.9526 26.7206 44.2644 27.7567C43.5763 28.7928 42.6289 29.6309 41.5166 30.1875L35.6104 24.2812L39.5479 21.3281H45.4541Z" fill="#F3AF3E"/>
<path d="M45.4393 24.2812C45.3697 25.3459 45.0617 26.3812 44.5382 27.3109C44.0147 28.2405 43.2891 29.0407 42.4148 29.6522L39.5479 28.2187L37.5791 27.2344L38.0639 26.7348L40.4424 24.2812H45.4393Z" fill="#5B3726"/>
<path d="M42.501 32.1562V44.9531H20.8447V32.1562C20.8447 29.2845 21.9855 26.5303 24.0162 24.4996C26.0469 22.4689 28.8011 21.3281 31.6729 21.3281C34.5446 21.3281 37.2988 22.4689 39.3295 24.4996C41.3602 26.5303 42.501 29.2845 42.501 32.1562V32.1562Z" fill="#F3AF3E"/>
<path d="M26.4414 28.2844L29.3955 27.3008L30.0177 29.1692L27.0636 30.1529L26.4414 28.2844Z" fill="#D18D28"/>
<path d="M33.3301 29.1365L33.9522 27.268L36.9063 28.2517L36.2842 30.1201L33.3301 29.1365Z" fill="#D18D28"/>
<path d="M37.8036 35.8858L36.923 34.125C36.1429 34.5125 33.4926 36.6621 32.658 36.4127V34.125H30.6892V36.4137C29.8546 36.6627 27.2031 34.5124 26.423 34.125L25.5425 35.8858C26.2182 36.222 28.7103 38.4862 29.4643 38.5193C30.2183 38.5525 30.9709 38.4273 31.6736 38.1518C32.3763 38.4272 33.1289 38.5523 33.883 38.519C34.637 38.4857 37.1279 36.2221 37.8036 35.8858Z" fill="#744630"/>
<path d="M23.7978 42C23.7985 42.3456 23.7076 42.6852 23.5345 42.9844H20.8447V39.0469C21.6279 39.0469 22.3791 39.358 22.9329 39.9118C23.4867 40.4656 23.7978 41.2168 23.7978 42Z" fill="#D18D28"/>
<path d="M42.501 39.0469V42.9844H39.8112C39.6381 42.6852 39.5472 42.3456 39.5479 42C39.5479 41.2168 39.859 40.4656 40.4128 39.9118C40.9666 39.358 41.7178 39.0469 42.501 39.0469Z" fill="#D18D28"/>
<path d="M20.8447 43.9688H18.876C18.3538 43.9688 17.8531 43.7613 17.4839 43.3921C17.1146 43.0229 16.9072 42.5221 16.9072 42C16.9072 41.2168 17.2184 40.4656 17.7722 39.9118C18.326 39.358 19.0771 39.0469 19.8604 39.0469C20.6436 39.0469 21.3947 39.358 21.9485 39.9118C22.5023 40.4656 22.8135 41.2168 22.8135 42C22.8135 42.5221 22.6061 43.0229 22.2368 43.3921C21.8676 43.7613 21.3669 43.9688 20.8447 43.9688Z" fill="#F3AF3E"/>
<path d="M44.4697 43.9688H42.501C41.9788 43.9688 41.4781 43.7613 41.1089 43.3921C40.7396 43.0229 40.5322 42.5221 40.5322 42C40.5322 41.2168 40.8434 40.4656 41.3972 39.9118C41.951 39.358 42.7021 39.0469 43.4854 39.0469C44.2686 39.0469 45.0197 39.358 45.5735 39.9118C46.1273 40.4656 46.4385 41.2168 46.4385 42C46.4385 42.5221 46.2311 43.0229 45.8618 43.3921C45.4926 43.7613 44.9919 43.9688 44.4697 43.9688Z" fill="#F3AF3E"/>
<path d="M31.6729 35.1094C31.1507 35.1094 30.6499 34.902 30.2807 34.5327C29.9115 34.1635 29.7041 33.6628 29.7041 33.1406V31.1719H33.6416V33.1406C33.6416 33.6628 33.4342 34.1635 33.065 34.5327C32.6958 34.902 32.195 35.1094 31.6729 35.1094Z" fill="#5B3726"/>
<path d="M40.5322 53.4844H22.8135L22.9821 53.3158C24.7641 51.5325 25.7656 49.1148 25.7666 46.5938H37.5791C37.5793 49.115 38.5809 51.533 40.3637 53.3158L40.5322 53.4844Z" fill="#D9D9D9"/>
<path d="M58.5565 47.25H4.78923C4.26108 47.25 3.75457 47.0288 3.38111 46.6349C3.00766 46.2411 2.79785 45.707 2.79785 45.15V42H60.5479V45.15C60.5479 45.707 60.338 46.2411 59.9646 46.6349C59.5911 47.0288 59.0846 47.25 58.5565 47.25Z" fill="#E4E4E2"/>
<path d="M22.8135 53.4844H40.5322C41.0544 53.4844 41.5551 53.6918 41.9243 54.061C42.2936 54.4302 42.501 54.931 42.501 55.4531V57.4219H20.8447V55.4531C20.8447 54.931 21.0521 54.4302 21.4214 54.061C21.7906 53.6918 22.2913 53.4844 22.8135 53.4844V53.4844Z" fill="#E4E4E2"/>
<path d="M37.7855 48.5625H25.5596C25.6971 47.9153 25.7664 47.2554 25.7663 46.5938H37.5788C37.5787 47.2554 37.648 47.9153 37.7855 48.5625V48.5625Z" fill="#A8A8A8"/>
<circle cx="55.2979" cy="10.5" r="2.625" fill="#62B58F"/>
</svg>
