<svg width="64" height="63" viewBox="0 0 64 63" fill="none" xmlns="http://www.w3.org/2000/svg">
<path d="M48.4072 54.1406V45.2812H54.3135V56.1094C54.3135 57.1537 53.8986 58.1552 53.1602 58.8936C52.4218 59.632 51.4203 60.0469 50.376 60.0469H48.4072V54.1406Z" fill="#F6BB92"/>
<path d="M53.0518 39.375L53.9997 37.0417L54.8405 34.9721C55.291 33.8593 55.4121 32.6324 55.1886 31.4477C54.965 30.2631 54.4068 29.1745 53.5852 28.3208C52.4886 27.1813 51.8726 25.6359 51.8727 24.0246V18.375H27.2233V24.025C27.2234 25.6364 26.6074 27.1817 25.5108 28.3213C24.6892 29.1748 24.1309 30.2633 23.9072 31.4479C23.6836 32.6324 23.8046 33.8593 24.2549 34.9721L25.1448 37.1715L53.0518 39.375Z" fill="#834B10"/>
<path d="M54.3135 40.441C54.3135 39.0428 53.8175 37.6901 52.9138 36.6233C52.0101 35.5565 50.7573 34.8449 49.3782 34.6151L48.4072 34.4532L43.3235 33.6059L39.5479 37.4064L35.7324 33.5767L28.7197 34.4532V60.047H48.4072V52.172C49.2977 51.2812 49.8598 50.1149 50.002 48.8634C50.1442 47.6119 49.858 46.3492 49.1901 45.2814H54.3135V40.441Z" fill="#5D62B5"/>
<path d="M52.6729 23.625H26.4229V16.2132C26.4229 12.6094 27.8057 9.15319 30.2671 6.6049C32.7285 4.05661 36.0669 2.625 39.5479 2.625C43.0288 2.625 46.3672 4.05661 48.8286 6.6049C51.29 9.15319 52.6729 12.6094 52.6729 16.2132V23.625Z" fill="#834B10"/>
<path d="M47.4229 16.7344V15.75L46.4385 10.8281H32.6572L31.6729 15.75V16.7344C30.8896 16.7344 30.1385 17.0455 29.5847 17.5993C29.0309 18.1531 28.7197 18.9043 28.7197 19.6875C28.7197 20.4707 29.0309 24.3837 29.5847 24.9375C30.1385 25.4913 29.8592 24.7763 30.6424 24.7763L30.3604 24.9375H31.6729C31.6729 26.765 33.3832 27.2052 34.6754 28.4974C35.9677 29.7897 37.7203 30.5156 39.5479 30.5156C41.3754 30.5156 43.128 29.7897 44.4203 28.4974C45.7125 27.2052 46.4385 26.6038 46.4385 24.7763L47.4229 24.9375H48.7354C49.5186 24.9375 48.9572 25.3302 49.511 24.7763C50.0648 24.2225 50.376 20.4707 50.376 19.6875C50.376 18.9043 50.0648 18.1531 49.511 17.5993C48.9572 17.0455 48.2061 16.7344 47.4229 16.7344Z" fill="#F6BB92"/>
<path d="M38.5635 41.1652V60.0468H16.5381C17.2724 58.9038 18.1271 57.8428 19.0876 56.882L19.1602 56.8094C20.9203 55.0523 22.3282 52.9749 23.3081 50.6891C23.6945 49.7884 24.0796 48.8877 24.3602 48.2343C24.6149 47.64 24.7822 47.2499 24.7822 47.2499H21.9497C21.0718 47.2492 20.2193 46.9553 19.5274 46.415C18.8355 45.8747 18.3438 45.1188 18.1303 44.2673L17.6455 42.328L17.5188 41.8211C17.4462 41.5309 17.4408 41.2279 17.5028 40.9353C17.5649 40.6426 17.6928 40.368 17.8769 40.1322C18.061 39.8963 18.2964 39.7056 18.5652 39.5744C18.8341 39.4432 19.1293 39.375 19.4285 39.3749H22.8135C23.4482 37.469 24.7441 35.8531 26.4667 34.8197L26.8974 34.5625C28.0045 33.8986 29.2612 33.5245 30.5512 33.4748C31.8412 33.4251 33.1228 33.7015 34.2778 34.2783L34.3208 34.3005C35.5957 34.9379 36.6678 35.9178 37.4172 37.1303C38.1665 38.3427 38.5634 39.7399 38.5635 41.1652Z" fill="#4B4B4B"/>
<path d="M38.5635 41.3438V44.1369C38.5635 44.7567 38.3684 45.3608 38.006 45.8636C37.6436 46.3664 37.1322 46.7425 36.5442 46.9384C35.938 47.1405 35.2827 47.1405 34.6766 46.9384C34.0885 46.7425 33.5771 46.3664 33.2147 45.8636C32.8523 45.3608 32.6572 44.7567 32.6572 44.1369V39.375H36.5947L38.5635 41.3438Z" fill="black"/>
<path d="M29.4161 45.9776L27.4473 47.9464C27.2625 48.1309 27.012 48.2344 26.7509 48.2343H24.3601C24.6148 47.64 24.7821 47.2499 24.7821 47.2499H21.9496C20.991 47.2508 20.0652 46.9007 19.3472 46.2656H26.3436L28.0232 44.5847C28.2079 44.4 28.4584 44.2963 28.7196 44.2963C28.9809 44.2963 29.2314 44.4 29.4161 44.5847C29.6008 44.7695 29.7046 45.02 29.7046 45.2812C29.7046 45.5424 29.6008 45.7929 29.4161 45.9776V45.9776Z" fill="black"/>
<path d="M20.8447 39.375V40.5647C20.8447 41.0324 20.6589 41.4809 20.3282 41.8116C19.9975 42.1423 19.549 42.3281 19.0813 42.3281H17.6455L17.5187 41.8212C17.4462 41.5309 17.4407 41.228 17.5028 40.9354C17.5648 40.6427 17.6928 40.3681 17.8769 40.1322C18.061 39.8964 18.2964 39.7057 18.5652 39.5745C18.8341 39.4433 19.1293 39.375 19.4284 39.375H20.8447Z" fill="black"/>
<path d="M23.8977 57.6155C23.715 57.6153 23.5359 57.5643 23.3805 57.4682C23.2251 57.372 23.0995 57.2345 23.0178 57.071C22.9362 56.9075 22.9016 56.7245 22.9181 56.5425C22.9345 56.3605 23.0013 56.1867 23.1109 56.0405C24.285 54.476 25.1987 52.7322 25.8168 50.8763C25.8567 50.7525 25.9207 50.6379 26.0053 50.539C26.0898 50.4401 26.193 50.3589 26.3091 50.3002C26.4252 50.2414 26.5517 50.2063 26.6815 50.1967C26.8112 50.1872 26.9415 50.2035 27.0649 50.2446C27.1883 50.2858 27.3024 50.351 27.4004 50.4364C27.4985 50.5219 27.5786 50.626 27.6362 50.7426C27.6938 50.8592 27.7277 50.9861 27.736 51.116C27.7443 51.2458 27.7267 51.376 27.6844 51.4989C26.9995 53.5555 25.987 55.488 24.6859 57.2217C24.5943 57.3442 24.4753 57.4435 24.3384 57.5119C24.2016 57.5802 24.0507 57.6157 23.8977 57.6155V57.6155Z" fill="black"/>
<path d="M31.6729 16.7344C32.5983 16.426 33.4454 15.9196 34.1551 15.2504C34.8649 14.5812 35.4203 13.7654 35.7826 12.8598L36.5947 10.8281L31.6729 9.84375V16.7344Z" fill="#834B10"/>
<path d="M36.5947 10.8281L36.71 11.001C37.8858 12.7647 39.4787 14.2107 41.3476 15.2109C43.2164 16.2111 45.3032 16.7344 47.4229 16.7344V9.84375L36.5947 10.8281Z" fill="#834B10"/>
<path d="M35.5283 20.8359C36.2079 20.8359 36.7588 20.285 36.7588 19.6055C36.7588 18.9259 36.2079 18.375 35.5283 18.375C34.8488 18.375 34.2979 18.9259 34.2979 19.6055C34.2979 20.285 34.8488 20.8359 35.5283 20.8359Z" fill="black"/>
<path d="M40.7783 20.8359C41.4579 20.8359 42.0088 20.285 42.0088 19.6055C42.0088 18.9259 41.4579 18.375 40.7783 18.375C40.0988 18.375 39.5479 18.9259 39.5479 19.6055C39.5479 20.285 40.0988 20.8359 40.7783 20.8359Z" fill="black"/>
<path d="M45.4541 42.3281C45.193 42.3281 44.9426 42.2244 44.758 42.0398C44.5734 41.8552 44.4697 41.6048 44.4697 41.3438V34.4531C44.4697 34.1921 44.5734 33.9417 44.758 33.7571C44.9426 33.5725 45.193 33.4688 45.4541 33.4688C45.7152 33.4688 45.9656 33.5725 46.1502 33.7571C46.3348 33.9417 46.4385 34.1921 46.4385 34.4531V41.3438C46.4385 41.6048 46.3348 41.8552 46.1502 42.0398C45.9656 42.2244 45.7152 42.3281 45.4541 42.3281Z" fill="#C3C3C3"/>
<path d="M45.4541 47.25C47.0851 47.25 48.4072 45.9278 48.4072 44.2969C48.4072 42.6659 47.0851 41.3438 45.4541 41.3438C43.8231 41.3438 42.501 42.6659 42.501 44.2969C42.501 45.9278 43.8231 47.25 45.4541 47.25Z" fill="#E4E4E2"/>
<path d="M45.4541 45.2812C45.9978 45.2812 46.4385 44.8405 46.4385 44.2969C46.4385 43.7532 45.9978 43.3125 45.4541 43.3125C44.9104 43.3125 44.4697 43.7532 44.4697 44.2969C44.4697 44.8405 44.9104 45.2812 45.4541 45.2812Z" fill="#C3C3C3"/>
<path d="M49.3916 60.0469H34.626C33.8428 60.0469 33.0916 59.7357 32.5378 59.1819C31.984 58.6281 31.6729 57.877 31.6729 57.0938C31.6729 56.3105 31.984 55.5594 32.5378 55.0056C33.0916 54.4518 33.8428 54.1406 34.626 54.1406H35.6104C35.6104 53.6185 35.8178 53.1177 36.187 52.7485C36.5562 52.3793 37.057 52.1719 37.5791 52.1719H37.748C38.2702 52.1719 38.7709 52.3793 39.1401 52.7485L40.5322 54.1406H49.3916V60.0469Z" fill="#F6BB92"/>
<path d="M16.6473 55.4771C16.5018 55.7993 16.4276 56.1491 16.4297 56.5025C16.4318 56.856 16.5102 57.2049 16.6595 57.5253C16.8088 57.8457 17.0256 58.1301 17.2949 58.359C17.5642 58.588 17.8797 58.7561 18.22 58.8519L22.0091 59.9225C22.7628 60.1354 23.5702 60.0403 24.2537 59.658C24.9373 59.2757 25.441 58.6375 25.654 57.8838C25.8669 57.1302 25.7717 56.3228 25.3894 55.6393C25.0071 54.9558 24.3689 54.4522 23.6153 54.2392L22.6679 53.9715C22.7382 53.7227 22.7588 53.4625 22.7286 53.2058C22.6984 52.949 22.6178 52.7007 22.4916 52.475C22.3654 52.2494 22.196 52.0508 21.9931 51.8906C21.7901 51.7304 21.5576 51.6118 21.3088 51.5415L21.1463 51.4956C20.8975 51.4253 20.6373 51.4047 20.3805 51.4349C20.1237 51.4652 19.8754 51.5457 19.6498 51.6719C18.5338 52.2962 17.6476 53.2619 17.1213 54.4273L16.6473 55.4771Z" fill="#F6BB92"/>
<path d="M11.6224 23.625C12.5643 23.6251 13.4675 24.059 14.1335 24.8313L15.9227 26.9064L17.7117 24.8313C18.3777 24.059 19.2809 23.6251 20.2228 23.625C21.0148 23.625 21.7841 23.932 22.4084 24.4974C23.0327 25.0627 23.4761 25.8538 23.6682 26.745C23.8854 27.7525 23.8287 28.8133 23.5058 29.7821C23.1829 30.7508 22.6096 31.58 21.8645 32.1561L15.9229 36.75L9.98125 32.1561C9.23612 31.58 8.66282 30.7508 8.33992 29.7821C8.01701 28.8133 7.9603 27.7525 8.17755 26.745C8.36959 25.8539 8.81294 25.0628 9.43712 24.4975C10.0613 23.9322 10.8305 23.6251 11.6224 23.625V23.625Z" fill="#5D62B5"/>
<path d="M31.6729 16.7344H32.6572V22.6406H31.6729V16.7344Z" fill="#EEB58E"/>
<path d="M46.4385 16.7344H47.4229V22.6406H46.4385V16.7344Z" fill="#EEB58E"/>
<path d="M35.7329 33.5765L39.5483 37.4062L43.324 33.6058C43.0942 33.5675 42.8854 33.4489 42.7348 33.2711C42.5841 33.0933 42.5015 32.8679 42.5015 32.6349V29.5312H36.5952V32.5998C36.5952 32.8397 36.5076 33.0714 36.3488 33.2512C36.19 33.4311 35.971 33.5468 35.7329 33.5765V33.5765Z" fill="#F6BB92"/>
<path d="M39.5479 31.5C36.7631 31.5 34.0924 30.532 32.1232 28.809C30.1541 27.0861 29.0479 24.7492 29.0479 22.3125V21H50.0479V22.3125C50.0479 24.7492 48.9416 27.0861 46.9725 28.809C45.0033 30.532 42.3326 31.5 39.5479 31.5Z" fill="#5D62B5"/>
<path d="M27.7354 41.3438C28.279 41.3438 28.7197 40.903 28.7197 40.3594C28.7197 39.8157 28.279 39.375 27.7354 39.375C27.1917 39.375 26.751 39.8157 26.751 40.3594C26.751 40.903 27.1917 41.3438 27.7354 41.3438Z" fill="black"/>
</svg>
