<svg width="64" height="63" viewBox="0 0 64 63" fill="none" xmlns="http://www.w3.org/2000/svg">
<path d="M60.2197 23.9585V25.2258C60.2197 29.2107 59.2329 33.1336 57.3473 36.6441C55.4617 40.1547 52.736 43.1436 49.4137 45.344L38.5635 52.5299L34.626 55.1373L31.6729 57.0938L30.6885 56.449L27.7354 54.5135L26.3203 53.5869L15.71 46.636L14.3159 45.723L14.0316 45.536C10.6816 43.3411 7.93059 40.3468 6.02671 36.8232C4.12283 33.2997 3.12595 29.3576 3.12598 25.3526V22.5065C3.12605 19.3799 4.01774 16.3181 5.69643 13.6804C7.02018 11.5995 8.8476 9.88636 11.0094 8.6995C13.1713 7.51265 15.5977 6.89049 18.0639 6.89063H18.4367C20.7126 6.89073 22.9571 7.42071 24.9927 8.43859C27.0282 9.45647 28.7988 10.9343 30.1643 12.755L31.6729 14.7656L33.1814 12.755C34.6327 10.8199 36.5402 9.27387 38.7341 8.25491C40.9279 7.23596 43.3397 6.77571 45.7546 6.91521C48.1695 7.0547 50.5123 7.7896 52.5742 9.05438C54.6361 10.3192 56.353 12.0745 57.5718 14.1639C59.3052 17.1371 60.219 20.5169 60.2197 23.9585V23.9585Z" fill="#5D62B5"/>
<path d="M34.626 46.7578V55.125V55.1373L38.5635 52.5299V43.6816L34.626 46.7578Z" fill="#EA9D2D"/>
<path d="M44.4697 20.6719V23.1328C44.4698 23.456 44.4062 23.7761 44.2826 24.0747C44.1589 24.3733 43.9777 24.6446 43.7491 24.8732C43.5206 25.1017 43.2493 25.283 42.9506 25.4066C42.652 25.5303 42.332 25.5938 42.0088 25.5938H39.5478V31.5L39.1876 32.4859L39.8112 33.4688L40.291 37.0666C40.4091 37.9473 40.4461 38.837 40.4018 39.7245C40.3179 41.4114 39.6706 43.0214 38.5635 44.2969L34.626 47.25V55.1373L31.6728 57.0938L30.6885 56.449V49.2188L26.3203 53.5869L15.71 46.636L23.7978 35.4375L25.7666 32.4844L28.3444 29.9065L29.6479 29.5875L29.7041 28.5469V25.8054C29.7043 23.1484 30.7599 20.6003 32.6388 18.7216C33.2812 18.0797 34.1522 17.7191 35.0603 17.7188H37.1915C38.0703 17.7189 38.913 18.0681 39.5343 18.6896L41.5166 20.6719H44.4697Z" fill="#FBB540"/>
<path d="M35.6104 20.6719H37.5791V22.6406H35.6104V20.6719Z" fill="#985713"/>
<path d="M39.8115 33.4686H38.3915C36.4103 33.466 34.4566 33.0049 32.6834 32.1213L28.3447 29.9064L29.7044 28.5468V28.3905L33.5718 30.3642C35.0691 31.1097 36.7188 31.4985 38.3915 31.4999H39.5482L39.8115 33.4686Z" fill="#5D62B5"/>
<path d="M31.9178 29.5312H29.7041V27.5625H31.9178C32.1139 27.5623 32.3018 27.4843 32.4405 27.3456C32.5791 27.207 32.657 27.019 32.6572 26.823V23.625H34.626V26.823C34.6252 27.541 34.3396 28.2294 33.8319 28.7371C33.3242 29.2448 32.6358 29.5304 31.9178 29.5312V29.5312Z" fill="#985713"/>
<path d="M31.6729 35.4375V37.4063C31.6727 38.1894 31.3615 38.9404 30.8077 39.4942C30.254 40.048 29.5029 40.3592 28.7198 40.3594V43.94C28.7202 44.8147 28.4611 45.6699 27.9753 46.3973L26.751 48.2344V51.1875L27.1091 51.9036L27.4069 52.5004L27.7354 53.1562V54.5135L26.3204 53.5869L15.71 46.636L14.3159 45.723L19.8604 37.4063V34.3252C19.8604 34.2501 19.8616 34.1738 19.8641 34.0987C19.9264 32.6591 20.4727 31.2826 21.4145 30.192L22.8135 28.5469L23.7979 32.4844H26.155C26.6411 32.4844 27.1197 32.6044 27.5482 32.8339C27.9768 33.0634 28.342 33.3952 28.6115 33.7997C28.9477 34.3035 29.403 34.7165 29.937 35.0022C30.471 35.2878 31.0673 35.4374 31.6729 35.4375Z" fill="#E4E4E2"/>
<path d="M24.7822 35.4375H26.751V37.4062H24.7822V35.4375Z" fill="#29C3BE"/>
</svg>
